<?xml version="1.0" ?><svg height="32" id="svg4475" version="1.1" width="32" xmlns="http://www.w3.org/2000/svg" xmlns:cc="http://creativecommons.org/ns#" xmlns:dc="http://purl.org/dc/elements/1.1/" xmlns:inkscape="http://www.inkscape.org/namespaces/inkscape" xmlns:rdf="http://www.w3.org/1999/02/22-rdf-syntax-ns#" xmlns:sodipodi="http://sodipodi.sourceforge.net/DTD/sodipodi-0.dtd" xmlns:svg="http://www.w3.org/2000/svg"><defs id="defs4477"/><g id="layer1" transform="translate(0,-1020.3622)"><g id="g10414" transform="translate(309.5948,-461.25192)"><g id="g15415" transform="translate(66.405195,515.25192)"><g id="g15417" transform="translate(-150,-49.999983)"><g id="g14600" transform="translate(-49.999995,-130.00002)"><path d="M 22.53125 1.90625 C 22.405528 1.89975 22.298235 1.95185 22.21875 2.03125 L 20.84375 3.40625 L 20.5 3.71875 L 18.96875 5.25 L 11.9375 12.3125 L 4.875 19.34375 C 2.54338 21.67545 2.32748 25.29625 4.5 27.46875 C 6.67258 29.64135 10.32463 29.48785 12.65625 27.15625 L 19.71875 20.09375 L 26.78125 13.0625 L 28.9375 10.875 L 29 10.8125 L 29.25 10.5625 C 29.46205 10.3504 29.46305 10.0256 29.25 9.8125 C 29.03723 9.5998 28.74319 9.6005 28.53125 9.8125 L 27.8125 10.5 C 27.60044 10.712 27.28523 10.7227 27.125 10.5625 C 26.91216 10.3497 26.91303 10.0245 27.125 9.8125 L 28.40625 8.5625 C 28.6183 8.3505 28.6193 8.0255 28.40625 7.8125 C 28.24602 7.6522 27.93072 7.63175 27.71875 7.84375 L 27.1875 8.375 C 26.97544 8.5871 26.65076 8.5883 26.4375 8.375 C 26.22466 8.1622 26.22554 7.86815 26.4375 7.65625 L 27.8125 6.28125 C 28.02455 6.06915 28.03527 5.75395 27.875 5.59375 C 27.66223 5.38095 27.33695 5.38175 27.125 5.59375 L 25.71875 7 C 25.55977 7.159 25.24458 7.18195 25.03125 6.96875 C 24.87357 6.81105 24.87227 6.4715 25.03125 6.3125 L 25.75 5.59375 C 25.90897 5.43475 25.92957 5.11705 25.71875 4.90625 C 25.50591 4.69345 25.19022 4.68495 25.03125 4.84375 L 23.59375 6.28125 C 23.3817 6.49335 23.06648 6.4728 22.90625 6.3125 C 22.69341 6.0997 22.69427 5.80565 22.90625 5.59375 L 25.03125 3.46875 C 25.2433 3.25665 25.24451 2.93195 25.03125 2.71875 C 24.87349 2.56095 24.5557 2.56945 24.34375 2.78125 L 22.9375 4.15625 C 22.72545 4.36825 22.43202 4.36945 22.21875 4.15625 C 22.00592 3.94335 22.0068 3.61815 22.21875 3.40625 L 22.90625 2.71875 C 23.06522 2.55975 23.06648 2.25395 22.90625 2.09375 C 22.799865 1.98735 22.656972 1.91275 22.53125 1.90625 z M 21.09375 4.71875 C 21.219471 4.725225 21.362085 4.79965 21.46875 4.90625 C 21.68152 5.11905 21.6902 5.43475 21.53125 5.59375 L 19.03125 8.0625 C 18.8192 8.2745 18.80869 8.59 18.96875 8.75 C 19.18152 8.9628 19.50678 8.962 19.71875 8.75 L 20.09375 8.375 C 20.25273 8.216 20.56792 8.2242 20.78125 8.4375 C 20.8864 8.5427 20.98091 8.75675 20.875 8.96875 C 20.875 8.96875 20.83405 9.0096 20.78125 9.0625 L 19.34375 10.5 C 19.1317 10.712 19.13317 11.0394 19.34375 11.25 C 19.55652 11.4628 19.88177 11.462 20.09375 11.25 L 22.9375 8.375 C 23.09647 8.2161 23.31783 8.11125 23.53125 8.21875 C 23.58355 8.27075 23.57215 8.29065 23.625 8.34375 C 23.78275 8.50155 23.80304 8.7157 23.75 8.875 C 23.74922 8.9804 23.67806 9.0094 23.625 9.0625 L 22.9375 9.75 C 22.72545 9.962 22.72416 10.2867 22.9375 10.5 C 23.09518 10.6577 23.41302 10.68075 23.625 10.46875 L 25.03125 9.0625 C 25.19023 8.9035 25.5057 8.9118 25.71875 9.125 C 25.87644 9.2826 25.91862 9.44455 25.8125 9.65625 C 25.7594 9.70925 25.80282 9.7597 25.75 9.8125 L 22.9375 12.625 C 22.72545 12.837 22.74599 13.1522 22.90625 13.3125 C 23.11909 13.5253 23.41302 13.5245 23.625 13.3125 L 24.375 12.5625 C 24.53398 12.4035 24.84924 12.4118 25.0625 12.625 C 25.22026 12.7828 25.22147 13.091 25.0625 13.25 L 24.6875 13.625 L 24.65625 13.6875 L 18.96875 19.34375 L 11.9375 26.40625 C 9.97683 28.36695 6.93624 28.52995 5.1875 26.78125 C 3.43875 25.03255 3.60182 21.99195 5.5625 20.03125 L 12.625 13 L 18.28125 7.34375 L 20.78125 4.84375 C 20.86074 4.76425 20.968029 4.712275 21.09375 4.71875 z M 21.84375 6.84375 C 21.976069 6.8436125 22.11208 6.8933 22.21875 7 C 22.37643 7.1576 22.36819 7.4755 22.15625 7.6875 C 21.99728 7.8465 21.69148 7.8477 21.53125 7.6875 C 21.31841 7.4746 21.30981 7.159 21.46875 7 C 21.574775 6.89395 21.711431 6.8438875 21.84375 6.84375 z M 30.3125 8.21875 C 30.180103 8.2188375 30.043475 8.26905 29.9375 8.375 C 29.72546 8.5871 29.72424 8.9117 29.9375 9.125 C 30.15034 9.3378 30.47552 9.337 30.6875 9.125 C 30.89955 8.913 30.90055 8.5881 30.6875 8.375 C 30.581115 8.2686 30.444897 8.2186625 30.3125 8.21875 z M 26.0625 11.09375 C 26.194817 11.093613 26.330835 11.14335 26.4375 11.25 C 26.59519 11.4077 26.6182 11.7255 26.40625 11.9375 C 26.24728 12.0964 25.91023 12.0977 25.75 11.9375 C 25.53716 11.7247 25.55981 11.409 25.71875 11.25 C 25.824775 11.144 25.930183 11.093887 26.0625 11.09375 z M 14.78125 12.5 C 14.655604 12.506763 14.512275 12.58145 14.40625 12.6875 L 13.03125 14.0625 C 12.81933 14.2744 12.84225 14.5923 13 14.75 C 13.21326 14.9633 13.5067 14.9621 13.71875 14.75 L 15.09375 13.375 C 15.3057 13.1631 15.30652 12.8377 15.09375 12.625 C 15.01374 12.5449 14.906896 12.493237 14.78125 12.5 z M 16.90625 13.21875 C 16.781781 13.216675 16.675335 13.26215 16.59375 13.34375 C 16.37614 13.56135 16.35956 13.8596 16.5625 14.0625 C 16.76339 14.2635 17.06359 14.2801 17.28125 14.0625 C 17.4444 13.8993 17.4528 13.5778 17.25 13.375 C 17.14963 13.2747 17.030719 13.220825 16.90625 13.21875 z M 19.03125 13.90625 C 18.898973 13.906425 18.762275 13.9565 18.65625 14.0625 L 17.96875 14.75 C 17.75678 14.962 17.75598 15.2872 17.96875 15.5 C 18.12898 15.6602 18.4442 15.6496 18.65625 15.4375 L 19.34375 14.75 C 19.55566 14.5381 19.56401 14.2203 19.40625 14.0625 C 19.299725 13.956 19.163527 13.906075 19.03125 13.90625 z M 15.03125 14.84375 L 14.75 15.125 L 12.84375 17.03125 L 11.03125 18.84375 C 10.91504 18.95995 10.84958 18.947 10.75 18.9375 C 10.6504 18.9275 10.53719 18.88055 10.4375 18.78125 C 10.3378 18.68125 10.25982 18.5371 10.25 18.4375 C 10.24 18.3375 10.259 18.27245 10.375 18.15625 L 11 17.53125 L 11.28125 17.25 L 10.5625 16.5625 L 10.3125 16.8125 L 9.65625 17.46875 L 8.15625 18.875 A 0.50005 0.50005 0 0 0 8.125 18.875 L 5.96875 21.0625 C 4.56549 22.4658 4.54759 24.7038 5.90625 26.0625 C 7.26502 27.4212 9.50298 27.4029 10.90625 26 L 14.9375 21.96875 L 16.09375 20.8125 A 0.50005 0.50005 0 0 0 15.40625 20.09375 L 14.21875 21.28125 C 13.77517 21.72485 13.5531 21.5901 13.40625 21.4375 C 13.2594 21.2849 13.15204 21.00415 13.5625 20.59375 L 15 19.15625 L 15.84375 18.3125 A 0.50005 0.50005 0 0 0 15.125 17.625 L 14.28125 18.46875 C 13.99398 18.75595 13.27516 18.0373 13.5625 17.75 L 15.46875 15.84375 L 15.71875 15.5625 L 15.03125 14.84375 z M 11.96875 15.3125 C 11.843096 15.319275 11.731025 15.39395 11.625 15.5 C 11.41307 15.7119 11.40474 16.0297 11.5625 16.1875 C 11.77576 16.4008 12.10045 16.3995 12.3125 16.1875 C 12.52448 15.9755 12.52527 15.6503 12.3125 15.4375 C 12.23249 15.35735 12.094404 15.305725 11.96875 15.3125 z M 16.90625 16.03125 C 16.773966 16.031425 16.63728 16.08145 16.53125 16.1875 C 16.31928 16.3994 16.31848 16.69345 16.53125 16.90625 C 16.69148 17.06645 17.00671 17.087 17.21875 16.875 C 17.43076 16.663 17.43901 16.3452 17.28125 16.1875 C 17.174725 16.08095 17.038534 16.031075 16.90625 16.03125 z M 18.34375 17.4375 C 18.218069 17.444275 18.07478 17.48775 17.96875 17.59375 L 16.53125 19.03125 C 16.37228 19.19025 16.37102 19.5272 16.53125 19.6875 C 16.7443 19.9007 17.05978 19.87775 17.21875 19.71875 L 18.65625 18.3125 C 18.86823 18.1005 18.86909 17.7753 18.65625 17.5625 C 18.576135 17.4824 18.469431 17.430725 18.34375 17.4375 z M 12.78125 18.53125 C 12.95767 18.84875 13.18094 19.0776 13.5 19.25 L 12.84375 19.90625 C 12.14141 20.60865 12.15862 21.5754 12.6875 22.125 C 12.81489 22.2574 13.01537 22.2451 13.1875 22.3125 L 10.1875 25.3125 C 9.15313 26.3469 7.59813 26.31705 6.625 25.34375 C 5.65198 24.37065 5.6219 22.7845 6.65625 21.75 L 8.84375 19.59375 L 9.46875 19 C 9.54985 19.17 9.58822 19.3695 9.71875 19.5 C 9.96349 19.7447 10.28554 19.901 10.65625 19.9375 C 11.02696 19.9735 11.44229 19.83855 11.75 19.53125 L 12.78125 18.53125 z M 8.75 21.21875 C 8.23726 21.21865 7.73164 21.4246 7.34375 21.8125 C 6.56803 22.5883 6.56809 23.8493 7.34375 24.625 C 8.11948 25.4008 9.38048 25.4007 10.15625 24.625 C 10.93203 23.8492 10.932 22.5882 10.15625 21.8125 C 9.76842 21.4247 9.26274 21.21875 8.75 21.21875 z M 8.75 22.21875 C 9.00561 22.21875 9.27378 22.3048 9.46875 22.5 C 9.85872 22.8899 9.85879 23.51625 9.46875 23.90625 C 9.07868 24.29635 8.42126 24.29635 8.03125 23.90625 C 7.64133 23.51635 7.64113 22.8902 8.03125 22.5 C 8.22626 22.305 8.49439 22.21865 8.75 22.21875 z " id="path10466" style="font-size:medium;font-style:normal;font-variant:normal;font-weight:normal;font-stretch:normal;text-indent:0;text-align:start;text-decoration:none;line-height:normal;letter-spacing:normal;word-spacing:normal;text-transform:none;direction:ltr;block-progression:tb;writing-mode:lr-tb;text-anchor:start;baseline-shift:baseline;color:#000000;fill:#000000;fill-opacity:1;stroke:none;stroke-width:1;marker:none;visibility:visible;display:inline;overflow:visible;enable-background:accumulate;font-family:Sans;-inkscape-font-specification:Sans" transform="translate(-176,1146.3622)"/></g></g></g></g></g></svg>