<?xml version="1.0" ?><svg height="32" id="svg4475" version="1.1" width="32" xmlns="http://www.w3.org/2000/svg" xmlns:cc="http://creativecommons.org/ns#" xmlns:dc="http://purl.org/dc/elements/1.1/" xmlns:inkscape="http://www.inkscape.org/namespaces/inkscape" xmlns:rdf="http://www.w3.org/1999/02/22-rdf-syntax-ns#" xmlns:sodipodi="http://sodipodi.sourceforge.net/DTD/sodipodi-0.dtd" xmlns:svg="http://www.w3.org/2000/svg"><defs id="defs4477"/><g id="layer1" transform="translate(0,-1020.3622)"><g id="g10414" transform="translate(309.5948,-461.25192)"><g id="g15415" transform="translate(66.405195,515.25192)"><g id="g15417" transform="translate(-150,-49.999983)"><g id="g14600" transform="translate(-49.999995,-130.00002)"><path d="M 26.59375 2.46875 C 26.354856 2.5327615 26.219949 2.7921909 26.25 3.0625 L 16.5625 5.65625 A 0.50005 0.50005 0 0 0 16.21875 6.28125 L 16.34375 6.75 L 8.15625 8.96875 A 0.50005 0.50005 0 0 0 7.78125 9.5625 L 7.90625 10.03125 L 4.03125 11.09375 L 3.96875 10.84375 C 3.9274166 10.689492 3.6738115 10.615807 3.40625 10.6875 C 3.1386885 10.759193 2.9586666 10.939492 3 11.09375 L 3.875 14.4375 C 3.9163075 14.591662 4.1699385 14.665443 4.4375 14.59375 C 4.7050615 14.522057 4.8850575 14.341662 4.84375 14.1875 L 4.78125 14 L 8.6875 12.9375 L 8.8125 13.4375 A 0.50005 0.50005 0 0 0 9.4375 13.78125 L 13.0625 12.8125 L 13.0625 13.53125 L 12.5625 13.53125 A 0.50005 0.50005 0 0 0 12.4375 13.53125 A 0.50005 0.50005 0 0 0 12.0625 14.03125 L 12.0625 16.03125 A 0.50005 0.50005 0 0 0 12.4375 16.53125 A 0.50005 0.50005 0 0 0 12.5625 16.53125 L 12.8125 16.53125 L 8 24.875 C 6.87138 24.875 6 25.86765 6 27.03125 A 0.50005 0.50005 0 0 0 6.40625 27.53125 A 0.50005 0.50005 0 0 0 6.5 27.53125 L 8 27.53125 L 9.5 27.53125 A 0.50005 0.50005 0 0 0 10 27.03125 C 10 26.25212 9.59699 25.566677 9 25.1875 L 14 16.53125 L 14.0625 16.53125 L 14.0625 26.9375 C 13.154981 27.155594 12.5 28.024009 12.5 29.03125 A 0.50005 0.50005 0 0 0 12.90625 29.53125 A 0.50005 0.50005 0 0 0 13 29.53125 L 14.5 29.53125 L 16 29.53125 A 0.50005 0.50005 0 0 0 16.5 29.03125 C 16.5 28.074916 15.898752 27.269226 15.0625 27 L 15.0625 16.53125 L 15.125 16.53125 L 20.09375 25.125 C 19.442113 25.487269 19 26.21043 19 27.03125 A 0.50005 0.50005 0 0 0 19.40625 27.53125 A 0.50005 0.50005 0 0 0 19.5 27.53125 L 21 27.53125 L 22.5 27.53125 A 0.50005 0.50005 0 0 0 23 27.03125 C 23 25.913051 22.189395 24.97949 21.125 24.90625 L 16.28125 16.53125 L 16.5625 16.53125 A 0.50005 0.50005 0 0 0 16.6875 16.53125 A 0.50005 0.50005 0 0 0 17.0625 16.03125 L 17.0625 14.03125 A 0.50005 0.50005 0 0 0 17.0625 13.9375 A 0.50005 0.50005 0 0 0 16.6875 13.53125 A 0.50005 0.50005 0 0 0 16.5625 13.53125 L 16.0625 13.53125 L 16.0625 12.03125 L 17.65625 11.59375 L 17.78125 12.0625 A 0.50005 0.50005 0 0 0 18.375 12.40625 L 28.0625 9.8125 C 28.158762 10.091455 28.402067 10.255608 28.65625 10.1875 C 28.923811 10.115807 29.081916 9.8369655 29 9.53125 L 28.875 9.125 A 0.50005 0.50005 0 0 0 28.875 9.09375 L 27.34375 3.28125 A 0.50005 0.50005 0 0 0 27.28125 3.15625 L 27.21875 2.90625 C 27.136808 2.6004379 26.861311 2.3970571 26.59375 2.46875 z M 26.5 4.03125 L 27.40625 7.40625 L 27.78125 8.875 L 18.625 11.34375 L 18.46875 10.84375 A 0.50005 0.50005 0 0 0 17.875 10.5 L 13.5 11.65625 A 0.50005 0.50005 0 0 0 13.4375 11.6875 L 9.65625 12.6875 L 9.53125 12.1875 A 0.50005 0.50005 0 0 0 8.9375 11.84375 L 4.5625 13.03125 L 4.4375 12.53125 L 4.3125 12.0625 L 8.65625 10.875 A 0.50005 0.50005 0 0 0 9.03125 10.25 L 8.875 9.78125 L 17.09375 7.59375 A 0.50005 0.50005 0 0 0 17.4375 6.96875 L 17.3125 6.5 L 26.5 4.03125 z M 15.0625 12.28125 L 15.0625 13.53125 L 14.0625 13.53125 L 14.0625 12.5625 L 15.0625 12.28125 z M 13.0625 14.53125 L 16.0625 14.53125 L 16.0625 15.53125 L 13.0625 15.53125 L 13.0625 14.53125 z M 8 25.875 C 8.3726 25.875 8.67314 26.14995 8.84375 26.53125 L 8 26.53125 L 7.1875 26.53125 C 7.35868 26.15205 7.62861 25.875 8 25.875 z M 21 25.875 C 21.3726 25.875 21.67314 26.14995 21.84375 26.53125 L 21 26.53125 L 20.1875 26.53125 C 20.35868 26.15205 20.62861 25.875 21 25.875 z M 14.5 27.875 C 14.8726 27.875 15.17314 28.14995 15.34375 28.53125 L 14.5 28.53125 L 13.6875 28.53125 C 13.85868 28.15205 14.12861 27.875 14.5 27.875 z " id="path11440" style="font-size:medium;font-style:normal;font-variant:normal;font-weight:normal;font-stretch:normal;text-indent:0;text-align:start;text-decoration:none;line-height:normal;letter-spacing:normal;word-spacing:normal;text-transform:none;direction:ltr;block-progression:tb;writing-mode:lr-tb;text-anchor:start;baseline-shift:baseline;color:#000000;fill:#000000;fill-opacity:1;stroke:none;stroke-width:1px;marker:none;visibility:visible;display:inline;overflow:visible;enable-background:accumulate;font-family:Sans;-inkscape-font-specification:Sans" transform="translate(-176,1146.3622)"/></g></g></g></g></g></svg>