<?xml version="1.0" ?><svg height="32" id="svg4475" version="1.1" width="32" xmlns="http://www.w3.org/2000/svg" xmlns:cc="http://creativecommons.org/ns#" xmlns:dc="http://purl.org/dc/elements/1.1/" xmlns:inkscape="http://www.inkscape.org/namespaces/inkscape" xmlns:rdf="http://www.w3.org/1999/02/22-rdf-syntax-ns#" xmlns:sodipodi="http://sodipodi.sourceforge.net/DTD/sodipodi-0.dtd" xmlns:svg="http://www.w3.org/2000/svg"><defs id="defs4477"/><g id="layer1" transform="translate(0,-1020.3622)"><g id="g10414" transform="translate(309.5948,-461.25192)"><g id="g15415" transform="translate(66.405195,515.25192)"><g id="g15417" transform="translate(-150,-49.999983)"><g id="g14600" transform="translate(-49.999995,-130.00002)"><path d="M 16.0625 0.1875 L 15.71875 0.53125 C 15.48589 0.76563753 15.246037 1.0074379 15.03125 1.25 C 12.308882 4.191021 11.072014 7.7185783 10.8125 11.25 C 10.655771 13.382739 10.832877 15.517903 11.25 17.53125 L 9.4375 18.03125 C 9.287736 16.265777 8.6878671 14.501951 7.34375 13.0625 L 6.96875 12.65625 L 6.625 13.0625 C 3.8736931 16.00897 4.2006059 20.257643 5.25 23.25 A 0.50005 0.50005 0 0 0 5.21875 23.28125 L 4.28125 25.28125 A 0.50005 0.50005 0 0 0 4.71875 26 L 5.34375 26 C 5.16585 26.3936 5.2751 26.69545 5.375 27.03125 C 5.4749 27.36715 5.62376 27.7353 5.78125 28.0625 C 6.09624 28.7168 6.46875 29.28125 6.46875 29.28125 L 6.875 29.9375 L 7.3125 29.28125 C 7.3125 29.28125 7.66596 28.74315 8 28.09375 C 8.16702 27.76895 8.33125 27.4042 8.4375 27.0625 C 8.54375 26.7208 8.64051 26.3927 8.46875 26 L 9.09375 26 A 0.50005 0.50005 0 0 0 9.5625 25.3125 L 8.78125 23.3125 A 0.50005 0.50005 0 0 0 8.71875 23.1875 C 8.8350381 22.851287 8.9679467 22.520134 9.0625 22.15625 L 12.34375 21.28125 C 12.438083 21.537943 12.524846 21.782684 12.625 22.03125 C 12.658199 22.113672 12.6854 22.198035 12.71875 22.28125 L 11.5625 24.25 A 0.50005 0.50005 0 0 0 12 25 L 13.875 25 C 13.726539 25.188377 13.580564 25.376187 13.46875 25.625 C 13.23159 26.1527 13.3873 26.68895 13.5625 27.28125 C 13.73772 27.87365 13.99315 28.49175 14.28125 29.09375 C 14.85745 30.29765 15.5 31.34375 15.5 31.34375 L 15.90625 32.03125 L 16.34375 31.375 C 16.34375 31.375 17.01512 30.34895 17.625 29.15625 C 17.92994 28.55995 18.22058 27.9131 18.40625 27.3125 C 18.59192 26.7119 18.7347 26.1647 18.5 25.625 C 18.392072 25.376895 18.264312 25.184315 18.125 25 L 19.96875 25 A 0.50005 0.50005 0 0 0 20.4375 24.28125 L 19.40625 22.28125 C 19.440977 22.188907 19.462564 22.093331 19.5 22 C 19.641485 21.647139 19.77639 21.306689 19.90625 20.9375 L 23 21.75 C 23.057577 22.005902 23.117792 22.255376 23.1875 22.5 C 23.262404 22.762859 23.351085 23.002967 23.4375 23.25 A 0.50005 0.50005 0 0 0 23.40625 23.28125 L 22.46875 25.28125 A 0.50005 0.50005 0 0 0 22.90625 26 L 23.53125 26 C 23.35335 26.3936 23.4626 26.69545 23.5625 27.03125 C 23.6624 27.36715 23.81126 27.7353 23.96875 28.0625 C 24.28374 28.7168 24.625 29.28125 24.625 29.28125 L 25.03125 29.9375 L 25.46875 29.28125 C 25.46875 29.28125 25.85346 28.74315 26.1875 28.09375 C 26.35452 27.76895 26.51875 27.4042 26.625 27.0625 C 26.73125 26.7208 26.82801 26.3927 26.65625 26 L 27.28125 26 A 0.50005 0.50005 0 0 0 27.75 25.3125 L 26.96875 23.3125 A 0.50005 0.50005 0 0 0 26.9375 23.28125 A 0.50005 0.50005 0 0 0 26.9375 23.25 C 27.986896 20.257643 28.313826 16.00897 25.5625 13.0625 L 25.1875 12.65625 L 24.84375 13.0625 C 23.596881 14.397815 22.958633 16.021644 22.75 17.65625 L 20.9375 17.15625 C 21.307106 15.244397 21.462513 13.225044 21.3125 11.21875 C 21.02736 7.40515 19.61665 3.59775 16.40625 0.53125 L 16.0625 0.1875 z M 16.0625 1.6875 C 17.34596 3.0765 18.2952 4.5811 18.96875 6.1875 L 13.15625 6.1875 C 13.8293 4.5809 14.77965 3.0764 16.0625 1.6875 z M 12.65625 7.1875 L 19.46875 7.1875 C 19.929203 8.5209236 20.208118 9.8852001 20.3125 11.28125 C 20.58315 14.90115 19.80512 18.6038 18.59375 21.625 C 18.54235 21.753 18.49029 21.8744 18.4375 22 L 13.6875 22 C 13.6401 21.8871 13.6088 21.77115 13.5625 21.65625 C 12.34486 18.63435 11.54589 14.9405 11.8125 11.3125 C 11.916094 9.9028155 12.19045 8.5346171 12.65625 7.1875 z M 16.0625 8.84375 C 15.06711 8.84375 14.25 9.6883 14.25 10.6875 C 14.25 11.6867 15.06706 12.5 16.0625 12.5 C 17.05794 12.5 17.875 11.6867 17.875 10.6875 C 17.875 9.6883 17.0579 8.84375 16.0625 8.84375 z M 16.0625 9.84375 C 16.50658 9.84375 16.875 10.2181 16.875 10.6875 C 16.875 11.1569 16.50654 11.5 16.0625 11.5 C 15.61848 11.5 15.25 11.1569 15.25 10.6875 C 15.25 10.2181 15.61843 9.84375 16.0625 9.84375 z M 7 14.34375 C 8.90902 16.91805 8.64354 20.4297 7.71875 23 L 6.21875 23 C 5.29261 20.4253 5.08005 16.91875 7 14.34375 z M 25.1875 14.34375 C 27.10465 16.91875 26.86347 20.4264 25.9375 23 L 24.4375 23 C 23.51299 20.4298 23.27874 16.91775 25.1875 14.34375 z M 20.71875 18.125 L 22.6875 18.65625 C 22.676241 19.047266 22.690932 19.45832 22.71875 19.84375 C 22.73865 20.119479 22.775163 20.386256 22.8125 20.65625 L 20.21875 19.96875 C 20.404502 19.370398 20.572049 18.75311 20.71875 18.125 z M 11.46875 18.53125 C 11.622481 19.149055 11.839969 19.756574 12.03125 20.34375 L 9.3125 21.0625 C 9.424004 20.418787 9.4612232 19.736779 9.46875 19.0625 L 11.46875 18.53125 z M 13.4375 23 L 18.625 23 L 19.15625 24 L 12.84375 24 L 13.4375 23 z M 6 24 L 7.96875 24 L 8.34375 25 L 5.53125 25 L 6 24 z M 24.1875 24 L 26.15625 24 L 26.53125 25 L 25.09375 25 L 23.71875 25 L 24.1875 24 z M 15.96875 25 L 16 25 C 16.31413 25 16.60738 25.04605 16.84375 25.15625 C 17.0886 25.27045 17.32344 25.4505 17.5625 26 C 17.6026 26.092 17.62575 26.52315 17.46875 27.03125 C 17.31166 27.53945 17.03947 28.1214 16.75 28.6875 C 16.37496 29.4209 16.17636 29.6798 15.9375 30.0625 C 15.70992 29.6678 15.53928 29.4225 15.1875 28.6875 C 14.91273 28.1134 14.64969 27.5061 14.5 27 C 14.35031 26.4939 14.38404 26.08065 14.40625 26.03125 C 14.62671 25.54075 14.86379 25.3175 15.125 25.1875 C 15.37729 25.0619 15.67522 25.0047 15.96875 25 z M 6.90625 26 C 7.07791 26 7.20285 26.0265 7.28125 26.0625 C 7.35965 26.0985 7.45132 26.15255 7.5625 26.40625 C 7.538 26.35025 7.54605 26.53245 7.46875 26.78125 C 7.39135 27.03015 7.27642 27.3306 7.125 27.625 C 7.02405 27.8213 7.00189 27.8361 6.90625 28 C 6.81445 27.8309 6.78467 27.8269 6.6875 27.625 C 6.54345 27.3258 6.41789 26.9992 6.34375 26.75 C 6.26965 26.5008 6.32025 26.32005 6.28125 26.40625 C 6.38095 26.18575 6.46928 26.1086 6.5625 26.0625 C 6.6557 26.0165 6.75842 26.001 6.90625 26 z M 25.09375 26 C 25.26541 26 25.3591 26.0265 25.4375 26.0625 C 25.5159 26.0985 25.60757 26.15255 25.71875 26.40625 C 25.69425 26.35025 25.73365 26.53245 25.65625 26.78125 C 25.57885 27.03015 25.43267 27.3306 25.28125 27.625 C 25.17911 27.8236 25.15903 27.8348 25.0625 28 C 24.9733 27.8351 24.9688 27.8198 24.875 27.625 C 24.73095 27.3258 24.60539 26.9992 24.53125 26.75 C 24.45715 26.5008 24.4764 26.32005 24.4375 26.40625 C 24.5372 26.18575 24.62553 26.1086 24.71875 26.0625 C 24.81195 26.0165 24.94592 26.001 25.09375 26 z " id="path11370" style="font-size:medium;font-style:normal;font-variant:normal;font-weight:normal;font-stretch:normal;text-indent:0;text-align:start;text-decoration:none;line-height:normal;letter-spacing:normal;word-spacing:normal;text-transform:none;direction:ltr;block-progression:tb;writing-mode:lr-tb;text-anchor:start;baseline-shift:baseline;color:#000000;fill:#000000;fill-opacity:1;stroke:none;stroke-width:0.99999994;marker:none;visibility:visible;display:inline;overflow:visible;enable-background:accumulate;font-family:Sans;-inkscape-font-specification:Sans" transform="translate(-176,1146.3622)"/></g></g></g></g></g></svg>