<?xml version="1.0" encoding="utf-8"?>
<!-- Generator: Adobe Illustrator 19.2.1, SVG Export Plug-In . SVG Version: 6.00 Build 0)  -->
<svg version="1.1" id="Capa_1" xmlns="http://www.w3.org/2000/svg" xmlns:xlink="http://www.w3.org/1999/xlink" x="0px" y="0px"
	 viewBox="0 0 138.3 167.4" style="enable-background:new 0 0 138.3 167.4;" xml:space="preserve">
<style type="text/css">
	.st0{fill:#282927;}
	.st1{fill:#83CDC2;}
	.st2{fill:#0D0F0C;}
	.st3{fill:#0E100D;}
	.st4{fill:#E5E4E5;}
</style>
<g>
	<path class="st0" d="M69.4,0c41.7,0.2,68.1,38.7,68.9,68.6c0.5,18.5-6.9,34.4-15.5,49.9c-6.8,12.2-14.9,23.6-25,33.3
		c-2.9,2.8-6,5.5-9.3,7.9c-13.9,10.2-24.3,10.3-38.3,0c-12.7-9.3-22.2-21.5-30.6-34.6c-8.7-13.7-16-28.2-18.8-44.3
		C-6,40.9,28.8,0,69.4,0C111,0.2,28.8,0,69.4,0z M68.9,4.2C56,4.1,43.5,8.1,33.1,15.9c-5.2,3.9-9.9,8.7-14,13.7
		c-4,4.9-7.4,10.2-10,15.9C6.6,51.1,5,57.1,4.4,63.3c-0.6,6.6,0.1,13.1,1.4,19.6c2.6,12.8,7.4,25,14,36.2s14.8,21.3,24,30.5
		c1.2,1.2,2.4,2.3,3.6,3.5c16.1,15.2,28.3,14.9,44.4-0.2c10-9.4,18.6-20.2,25.6-32c3.5-5.9,6.5-12,9.2-18.3
		c2.7-6.5,5.4-13.3,6.8-20.2c2.7-13.2,0.4-27.3-5.4-39.4c-5.1-10.6-12.9-19.8-22.4-26.6C96,9.5,84.8,5.2,73.2,4.4
		C71.8,4.3,70.4,4.2,68.9,4.2C52.4,4.1,100.8,4.2,68.9,4.2z"/>
	<path class="st1" d="M68.9,4.2c11.6,0,23.1,3.5,32.9,9.7c9.9,6.2,18.2,14.9,24,25.1c6.4,11.3,9.6,24.6,8.3,37.6
		c-0.7,7.3-3.2,14.3-5.8,21.2c-2.5,6.4-5.3,12.7-8.6,18.7c-6.5,12-14.7,23.1-24.3,32.8c-1.2,1.2-2.4,2.4-3.7,3.6
		c-16.1,15.1-28.3,15.4-44.4,0.2c-9.5-9-18.1-18.9-25.1-30C15.3,112.2,10,100.2,6.8,87.6c-1.6-6.4-2.8-13-2.7-19.7
		c0.1-6.2,1.2-12.4,3.4-18.2c4.3-11.9,12.5-22.5,22-30.8C39.2,10.5,51.2,5.3,64,4.4C65.6,4.3,67.3,4.2,68.9,4.2
		C100.8,4.2,52.4,4.1,68.9,4.2z M51,133.3c3.3,0.1,6.6-1.3,7.6-4.7c1.2-4-0.8-8.7-2.9-12c-6.3-9.9-15.5-17.5-26.3-22.3
		c-2.5-1.1-5.4-2.4-8.2-1.4s-4.6,3.8-4.6,6.8c0,2.8,1.1,5.8,2.2,8.4s2.5,5,4.2,7.3c3.8,5.1,8.8,9.1,14.1,12.6
		C41.6,130.8,46.3,132.9,51,133.3C56.3,133.5,46.3,132.9,51,133.3z M120.8,102c0.4-6.8-3.8-10-9.8-8.1c-7.3,2.4-13.8,6.6-19.3,11.8
		c-5.5,5.1-11.2,11.3-12.7,18.9c-0.5,2.6-0.3,5.6,1.6,7.6c2,2,5,2.1,7.6,1.5c6.5-1.5,12.7-4.6,17.9-8.8c5.9-4.8,10.3-11,13.4-17.9
		C120.2,105.2,120.5,103.2,120.8,102C121.1,95.2,120.5,103.2,120.8,102z M67.9,136.9c-1,1.3-2.4,2.7-2.9,4.3c-0.3,1.1-0.3,3.2,1.4,3
		c1.3-0.1,1.9-1.7,2-2.8C68.4,139.9,67.9,138.4,67.9,136.9C66,139.4,68,139.9,67.9,136.9z M71.5,137.8c0.1,1.3-0.6,2.5-0.6,3.8
		s0.9,2.6,2.3,2.6c1.7,0,1.5-1.8,1.1-3C73.8,139.8,72.6,138.7,71.5,137.8C71.5,140,73.5,139.3,71.5,137.8z"/>
	<path class="st2" d="M51,133.3c-4.7-0.5-9.4-2.5-13.8-5.3c-9.4-6-18.1-14.6-20.3-26c-0.6-3,0-5.9,2.4-7.9c2.4-1.9,5.2-1.6,7.9-0.6
		c5.5,2,10.7,5.1,15.2,8.7c5.2,4,9.6,9,13.2,14.5c2.1,3.3,4.1,8,2.9,12C57.6,132,54.3,133.4,51,133.3
		C46.3,132.9,56.3,133.5,51,133.3z M28.7,102.5c1.6-0.4,3.7-0.7,3.9-2.7c0.3-2.5-2.2-3.4-4.3-3.3c-2,0-4.3,0.8-4.2,3.2
		C24.2,102,26.9,102.3,28.7,102.5C30.3,102.1,26.3,102.3,28.7,102.5z"/>
	<path class="st3" d="M120.8,102c-0.3,1.1-0.5,3.2-1.3,5c-2.8,6.1-6.6,11.8-11.6,16.4c-4.9,4.4-10.8,7.6-17.1,9.6
		c-2.8,0.9-6,1.7-8.7,0.3c-2.3-1.2-3.3-3.7-3.3-6.3c0-3.6,1.7-7.3,3.6-10.3c2.1-3.3,4.8-6.2,7.5-9c6-6.1,13.1-11,21.3-13.7
		C117,92,121.1,95.2,120.8,102C120.5,103.2,121.1,95.2,120.8,102z M108.6,97.1c-1.6,0.4-3.6,0.7-3.7,2.8c0,2.5,2.3,3.2,4.4,3.1
		c2-0.1,4.4-0.8,4.1-3.2C113.2,97.4,110.5,97.1,108.6,97.1C107.1,97.4,111.2,97.2,108.6,97.1z"/>
	<g>
		<path class="st3" d="M63.6,154c0-3.2,12.1-3.9,12.1-0.1S63.6,157.2,63.6,154z"/>
	</g>
	<path class="st3" d="M67.9,136.9c0.1,1.5,0.5,3,0.5,4.6c-0.1,1.1-0.7,2.7-2,2.8c-1.6,0.1-1.7-1.9-1.4-3
		C65.5,139.6,66.9,138.3,67.9,136.9C68,139.9,66,139.4,67.9,136.9z"/>
	<path class="st3" d="M71.5,137.8c1.2,0.9,2.4,2,2.9,3.4c0.4,1.2,0.5,3-1.1,3c-1.4,0-2.3-1.4-2.3-2.6
		C70.9,140.3,71.5,139.1,71.5,137.8C73.5,139.3,71.5,140,71.5,137.8z"/>
	<path class="st4" d="M28.7,102.5c-1.8-0.2-4.5-0.5-4.6-2.8c-0.1-2.4,2.2-3.1,4.2-3.2c2.1,0,4.6,0.8,4.3,3.3
		C32.4,101.8,30.3,102.1,28.7,102.5C26.3,102.3,30.3,102.1,28.7,102.5z"/>
	<path class="st4" d="M108.6,97.1c1.9,0.1,4.5,0.3,4.8,2.6c0.4,2.5-2.1,3.3-4.1,3.3c-2,0.1-4.3-0.6-4.4-3
		C104.9,97.8,107,97.5,108.6,97.1C111.2,97.2,107.1,97.4,108.6,97.1z"/>
</g>
</svg>
