<?xml version="1.0" encoding="utf-8"?>
<!-- Generator: Adobe Illustrator 19.2.1, SVG Export Plug-In . SVG Version: 6.00 Build 0)  -->
<svg version="1.1" id="Capa_1" xmlns="http://www.w3.org/2000/svg" xmlns:xlink="http://www.w3.org/1999/xlink" x="0px" y="0px"
	 viewBox="0 0 559.1 165.1" enable-background="new 0 0 559.1 165.1" xml:space="preserve">
<g>
	<g>
		<path fill="#EEEEEE" d="M103.4,126.9c0,8.3-6.4,16.6-19.1,25.1c-12.7,8.5-26.6,12.7-41.8,12.7c-12.3,0-21.5-3.6-27.5-10.8
			c-6-7.2-9-16.7-9-28.4c0-10.5,2.3-20.9,7-31.2C17.7,84,24.5,75.5,33.4,68.6c8.9-6.9,18.6-10.3,29.1-10.3c18,0,27.1,7.7,27.1,23.1
			c0,6.9-2.1,12.5-6.4,16.9c-4.3,4.4-10,6.6-17.1,6.6c-2.2,0-4.3-0.3-6.2-1s-3.2-1.5-3.9-2.3l-1-1c4.5-4.8,6.7-9.4,6.7-13.8
			c0-3.2-1.4-4.8-4.2-4.8c-5.7,0-10.8,4.3-15.3,12.9s-6.7,18.5-6.7,29.7c0,4.9,1.2,8.6,3.7,11.2c2.4,2.6,5.6,3.9,9.3,3.9
			c10.4,0,19.8-2.8,28.3-8.5c8.5-5.7,14.5-11.3,17.8-16.9C100.4,115,103.4,119.3,103.4,126.9z"/>
		<path fill="#EEEEEE" d="M208.7,128.6c0,7.8-5,15.9-14.9,24.1c-9.9,8.3-21.1,12.4-33.6,12.4c-7.6,0-13.4-1.8-17.5-5.4
			s-6.2-8.7-6.2-15.4c0-5.9,3.1-15.6,9.2-29.1c6.2-13.5,9.2-21.4,9.2-23.6c0-2.2-0.9-3.4-2.7-3.4c-6,0-12.3,4.2-18.8,12.5
			c-6.5,8.3-11.8,18-15.7,29.2c-4,11.1-6.2,21.2-6.6,30.1c-2.4,1.4-5.4,2.1-9,2.1c-4.2,0-7.7-1.5-10.6-4.4
			c-2.9-2.9-4.3-7.4-4.3-13.4c0-5,0.7-11.7,2-19.9s3.3-17.5,5.8-27.7c2.5-10.2,5.9-20.4,10.1-30.6c4.2-10.2,8.8-19.6,13.8-28.2
			c5-8.6,11.1-15.6,18.2-20.9c7.1-5.3,14.5-8,22.3-8c7.6,0,13.4,1.9,17.6,5.7c4.2,3.8,6.3,9.1,6.3,15.9c0,12-3.8,22.5-11.3,31.5
			c9.4,2.5,14.1,9,14.1,19.3c0,5.9-1.4,12.3-4.3,19.4c-2.9,7.1-5.8,13.5-8.7,19.2c-2.9,5.7-4.4,9.9-4.4,12.6c0,3.2,1.7,4.8,5,4.8
			c4.6,0,9.3-2.3,14.2-7c4.8-4.7,8.6-10,11.4-16.1C205.5,114.9,208.7,119.7,208.7,128.6z M129.5,76.3c1.9-1.6,3.3-2.9,4.3-3.8
			c1-0.9,2.5-2.3,4.5-4.3c2-2,3.7-3.6,4.9-5c1.3-1.4,2.7-3.2,4.3-5.3c1.6-2.2,2.9-4.1,3.8-5.9c0.9-1.7,1.7-3.6,2.3-5.7
			c0.6-2,0.9-4,0.9-6c0-2-0.6-2.9-1.9-2.9c-3.4,0-8.1,5.4-14.3,16.3c-6.2,10.8-10.2,19.3-12.2,25.5
			C126.5,78.8,127.6,77.9,129.5,76.3z"/>
		<path fill="#EEEEEE" d="M319.9,128.6c0,8-4.8,16.1-14.3,24.2c-9.5,8.2-20.4,12.3-32.7,12.3c-3.5,0-6.6-0.4-9.4-1.3
			c-2.8-0.8-4.9-1.9-6.4-3c-1.5-1.2-2.7-2.4-3.6-3.7c-0.9-1.3-1.5-2.3-1.8-3.1l-0.4-1.3c-0.3,0.3-0.6,0.7-1,1.3
			c-0.4,0.6-1.5,1.5-3.1,2.9c-1.7,1.4-3.5,2.6-5.6,3.7c-2,1.1-4.8,2-8.3,2.8c-3.5,0.8-7.2,1.3-11.1,1.3c-10.1,0-17.6-3.2-22.7-9.7
			c-5-6.4-7.6-14.8-7.6-25.2c0-20,7.2-37.2,21.7-51.6c14.5-14.4,31.9-21.6,52.4-21.6c21.7,0,32.5,7.2,32.5,21.6c0,1-0.2,2.1-0.5,3.3
			c-0.4,1.2-0.7,2.1-0.9,2.8l-0.6,1.1c-6-4.1-16.4-6.1-31.3-6.1c-12,0-22.4,5-31.2,15c-8.7,10-13.1,21.9-13.1,35.6
			c0,7,2.7,10.5,8.2,10.5c3.6,0,7-1.2,10-3.5c3-2.3,5.6-5.6,7.8-10c2.2-4.3,4-8.5,5.4-12.5c1.4-4,2.9-8.8,4.4-14.4
			c2.9-10.4,9.4-15.5,19.5-15.5c2.2,0,4.3,0.2,6.2,0.5c1.9,0.3,3.2,0.7,3.9,0.9l1.3,0.4c-1.4,4.5-2.9,9.3-4.4,14.4
			c-1.5,5.1-2.7,8.7-3.4,10.9c-0.7,2.2-1.4,4.4-2,6.8c-0.6,2.4-1,4.2-1.3,5.5c-0.2,1.3-0.3,2.5-0.3,3.8c0,6.4,3.1,9.7,9.2,9.7
			c4.8,0,9.6-2.4,14.5-7.2c4.9-4.8,8.5-10.1,10.7-15.8C316.7,114.9,319.9,119.7,319.9,128.6z"/>
		<path fill="#EEEEEE" d="M400.4,126.9c0,8.3-6.4,16.6-19.1,25.1c-12.7,8.5-26.6,12.7-41.8,12.7c-12.3,0-21.5-3.6-27.5-10.8
			c-6-7.2-9-16.7-9-28.4c0-10.5,2.3-20.9,7-31.2c4.7-10.3,11.5-18.8,20.4-25.7c8.9-6.9,18.6-10.3,29.1-10.3c18,0,27.1,7.7,27.1,23.1
			c0,6.9-2.1,12.5-6.4,16.9c-4.3,4.4-10,6.6-17.1,6.6c-2.2,0-4.3-0.3-6.2-1c-1.9-0.7-3.2-1.5-3.9-2.3l-1-1c4.5-4.8,6.7-9.4,6.7-13.8
			c0-3.2-1.4-4.8-4.2-4.8c-5.7,0-10.8,4.3-15.3,12.9c-4.5,8.6-6.7,18.5-6.7,29.7c0,4.9,1.2,8.6,3.7,11.2c2.4,2.6,5.6,3.9,9.3,3.9
			c10.4,0,19.8-2.8,28.3-8.5c8.5-5.7,14.5-11.3,17.8-16.9C397.5,115,400.4,119.3,400.4,126.9z"/>
		<path fill="#EEEEEE" d="M505.8,128.6c0,7.8-5,15.9-14.9,24.1c-9.9,8.3-21.1,12.4-33.6,12.4c-7.6,0-13.4-1.8-17.5-5.4
			s-6.2-8.7-6.2-15.4c0-5.9,3.1-15.6,9.2-29.1c6.2-13.5,9.2-21.4,9.2-23.6c0-2.2-0.9-3.4-2.7-3.4c-6,0-12.3,4.2-18.8,12.5
			c-6.5,8.3-11.8,18-15.7,29.2c-4,11.1-6.2,21.2-6.6,30.1c-2.4,1.4-5.4,2.1-9,2.1c-4.2,0-7.7-1.5-10.6-4.4
			c-2.9-2.9-4.3-7.4-4.3-13.4c0-5,0.7-11.7,2-19.9c1.3-8.3,3.3-17.5,5.8-27.7s5.9-20.4,10.1-30.6c4.2-10.2,8.8-19.6,13.8-28.2
			c5-8.6,11.1-15.6,18.1-20.9c7.1-5.3,14.5-8,22.3-8c7.6,0,13.4,1.9,17.6,5.7c4.2,3.8,6.3,9.1,6.3,15.9c0,12-3.8,22.5-11.3,31.5
			c9.4,2.5,14.1,9,14.1,19.3c0,5.9-1.4,12.3-4.3,19.4c-2.9,7.1-5.8,13.5-8.7,19.2c-2.9,5.7-4.4,9.9-4.4,12.6c0,3.2,1.7,4.8,5,4.8
			c4.6,0,9.3-2.3,14.2-7c4.8-4.7,8.6-10,11.4-16.1C502.6,114.9,505.8,119.7,505.8,128.6z M426.6,76.3c1.9-1.6,3.3-2.9,4.3-3.8
			c1-0.9,2.5-2.3,4.5-4.3c2-2,3.7-3.6,4.9-5c1.3-1.4,2.7-3.2,4.3-5.3c1.6-2.2,2.9-4.1,3.8-5.9c0.9-1.7,1.7-3.6,2.3-5.7
			c0.6-2,0.9-4,0.9-6c0-2-0.6-2.9-1.9-2.9c-3.4,0-8.1,5.4-14.3,16.3c-6.2,10.8-10.2,19.3-12.2,25.5
			C423.6,78.8,424.7,77.9,426.6,76.3z"/>
		<path fill="#EEEEEE" d="M559.1,128.6c0,7.8-4.8,15.9-14.4,24.1c-9.6,8.3-20.5,12.4-32.8,12.4c-7.4,0-13.1-1.7-17.1-5.1
			s-6-8.3-6-14.6c0-6.6,1.5-14.5,4.4-23.7c2.9-9.2,5.9-19.1,8.8-29.5c2.9-10.4,4.4-20.4,4.4-29.9c4.5-1.5,8.5-2.3,12-2.3
			c5.2,0,9.5,1.4,12.9,4.3c3.4,2.9,5.1,7.3,5.1,13.3c0,7.6-2.6,18-7.9,31.4c-5.2,13.4-7.9,21.4-7.9,24c0,2.9,1.5,4.4,4.4,4.4
			c4.5,0,8.9-2.3,13.3-7c4.4-4.7,8.1-10,11-16.1C555.8,114.9,559.1,119.7,559.1,128.6z M545.6,36.1c-3.4,3.6-8,5.5-13.9,5.5
			c-4.8,0-8.6-1.4-11.6-4.2c-3-2.8-4.5-6.4-4.5-10.9c0-6.2,1.9-10.9,5.6-14.4c3.7-3.4,8.1-5.1,13.3-5.1c4.9,0,8.8,1.5,11.8,4.4
			c2.9,2.9,4.4,6.8,4.4,11.5C550.7,28,549,32.5,545.6,36.1z"/>
	</g>
	<g>
		<path fill="#EEEEEE" d="M102.4,126.9c0,8.3-6.4,16.6-19.1,25.1c-12.7,8.5-26.6,12.7-41.8,12.7c-12.3,0-21.5-3.6-27.5-10.8
			c-6-7.2-9-16.7-9-28.4c0-10.5,2.3-20.9,7-31.2C16.7,84,23.5,75.5,32.4,68.6c8.9-6.9,18.6-10.3,29.1-10.3c18,0,27.1,7.7,27.1,23.1
			c0,6.9-2.1,12.5-6.4,16.9c-4.3,4.4-10,6.6-17.1,6.6c-2.2,0-4.3-0.3-6.2-1s-3.2-1.5-3.9-2.3l-1-1c4.5-4.8,6.7-9.4,6.7-13.8
			c0-3.2-1.4-4.8-4.2-4.8c-5.7,0-10.8,4.3-15.3,12.9s-6.7,18.5-6.7,29.7c0,4.9,1.2,8.6,3.7,11.2c2.4,2.6,5.6,3.9,9.3,3.9
			c10.4,0,19.8-2.8,28.3-8.5c8.5-5.7,14.5-11.3,17.8-16.9C99.4,115,102.4,119.3,102.4,126.9z"/>
		<path fill="#EEEEEE" d="M207.7,128.6c0,7.8-5,15.9-14.9,24.1c-9.9,8.3-21.1,12.4-33.6,12.4c-7.6,0-13.4-1.8-17.5-5.4
			s-6.2-8.7-6.2-15.4c0-5.9,3.1-15.6,9.2-29.1c6.2-13.5,9.2-21.4,9.2-23.6c0-2.2-0.9-3.4-2.7-3.4c-6,0-12.3,4.2-18.8,12.5
			c-6.5,8.3-11.8,18-15.7,29.2c-4,11.1-6.2,21.2-6.6,30.1c-2.4,1.4-5.4,2.1-9,2.1c-4.2,0-7.7-1.5-10.6-4.4
			c-2.9-2.9-4.3-7.4-4.3-13.4c0-5,0.7-11.7,2-19.9s3.3-17.5,5.8-27.7c2.5-10.2,5.9-20.4,10.1-30.6c4.2-10.2,8.8-19.6,13.8-28.2
			c5-8.6,11.1-15.6,18.2-20.9c7.1-5.3,14.5-8,22.3-8c7.6,0,13.4,1.9,17.6,5.7c4.2,3.8,6.3,9.1,6.3,15.9c0,12-3.8,22.5-11.3,31.5
			c9.4,2.5,14.1,9,14.1,19.3c0,5.9-1.4,12.3-4.3,19.4c-2.9,7.1-5.8,13.5-8.7,19.2c-2.9,5.7-4.4,9.9-4.4,12.6c0,3.2,1.7,4.8,5,4.8
			c4.6,0,9.3-2.3,14.2-7c4.8-4.7,8.6-10,11.4-16.1C204.5,114.9,207.7,119.7,207.7,128.6z M128.5,76.3c1.9-1.6,3.3-2.9,4.3-3.8
			c1-0.9,2.5-2.3,4.5-4.3c2-2,3.7-3.6,4.9-5c1.3-1.4,2.7-3.2,4.3-5.3c1.6-2.2,2.9-4.1,3.8-5.9c0.9-1.7,1.7-3.6,2.3-5.7
			c0.6-2,0.9-4,0.9-6c0-2-0.6-2.9-1.9-2.9c-3.4,0-8.1,5.4-14.3,16.3c-6.2,10.8-10.2,19.3-12.2,25.5
			C125.5,78.8,126.6,77.9,128.5,76.3z"/>
		<path fill="#EEEEEE" d="M318.9,128.6c0,8-4.8,16.1-14.3,24.2c-9.5,8.2-20.4,12.3-32.7,12.3c-3.5,0-6.6-0.4-9.4-1.3
			c-2.8-0.8-4.9-1.9-6.4-3c-1.5-1.2-2.7-2.4-3.6-3.7c-0.9-1.3-1.5-2.3-1.8-3.1l-0.4-1.3c-0.3,0.3-0.6,0.7-1,1.3
			c-0.4,0.6-1.5,1.5-3.1,2.9c-1.7,1.4-3.5,2.6-5.6,3.7c-2,1.1-4.8,2-8.3,2.8c-3.5,0.8-7.2,1.3-11.1,1.3c-10.1,0-17.6-3.2-22.7-9.7
			c-5-6.4-7.6-14.8-7.6-25.2c0-20,7.2-37.2,21.7-51.6c14.5-14.4,31.9-21.6,52.4-21.6c21.7,0,32.5,7.2,32.5,21.6c0,1-0.2,2.1-0.5,3.3
			c-0.4,1.2-0.7,2.1-0.9,2.8l-0.6,1.1c-6-4.1-16.4-6.1-31.3-6.1c-12,0-22.4,5-31.2,15c-8.7,10-13.1,21.9-13.1,35.6
			c0,7,2.7,10.5,8.2,10.5c3.6,0,7-1.2,10-3.5c3-2.3,5.6-5.6,7.8-10c2.2-4.3,4-8.5,5.4-12.5c1.4-4,2.9-8.8,4.4-14.4
			c2.9-10.4,9.4-15.5,19.5-15.5c2.2,0,4.3,0.2,6.2,0.5c1.9,0.3,3.2,0.7,3.9,0.9l1.3,0.4c-1.4,4.5-2.9,9.3-4.4,14.4
			c-1.5,5.1-2.7,8.7-3.4,10.9c-0.7,2.2-1.4,4.4-2,6.8c-0.6,2.4-1,4.2-1.3,5.5c-0.2,1.3-0.3,2.5-0.3,3.8c0,6.4,3.1,9.7,9.2,9.7
			c4.8,0,9.6-2.4,14.5-7.2c4.9-4.8,8.5-10.1,10.7-15.8C315.7,114.9,318.9,119.7,318.9,128.6z"/>
		<path fill="#EEEEEE" d="M399.4,126.9c0,8.3-6.4,16.6-19.1,25.1c-12.7,8.5-26.6,12.7-41.8,12.7c-12.3,0-21.5-3.6-27.5-10.8
			c-6-7.2-9-16.7-9-28.4c0-10.5,2.3-20.9,7-31.2c4.7-10.3,11.5-18.8,20.4-25.7c8.9-6.9,18.6-10.3,29.1-10.3c18,0,27.1,7.7,27.1,23.1
			c0,6.9-2.1,12.5-6.4,16.9c-4.3,4.4-10,6.6-17.1,6.6c-2.2,0-4.3-0.3-6.2-1c-1.9-0.7-3.2-1.5-3.9-2.3l-1-1c4.5-4.8,6.7-9.4,6.7-13.8
			c0-3.2-1.4-4.8-4.2-4.8c-5.7,0-10.8,4.3-15.3,12.9c-4.5,8.6-6.7,18.5-6.7,29.7c0,4.9,1.2,8.6,3.7,11.2c2.4,2.6,5.6,3.9,9.3,3.9
			c10.4,0,19.8-2.8,28.3-8.5c8.5-5.7,14.5-11.3,17.8-16.9C396.5,115,399.4,119.3,399.4,126.9z"/>
		<path fill="#EEEEEE" d="M504.8,128.6c0,7.8-5,15.9-14.9,24.1c-9.9,8.3-21.1,12.4-33.6,12.4c-7.6,0-13.4-1.8-17.5-5.4
			s-6.2-8.7-6.2-15.4c0-5.9,3.1-15.6,9.2-29.1c6.2-13.5,9.2-21.4,9.2-23.6c0-2.2-0.9-3.4-2.7-3.4c-6,0-12.3,4.2-18.8,12.5
			c-6.5,8.3-11.8,18-15.7,29.2c-4,11.1-6.2,21.2-6.6,30.1c-2.4,1.4-5.4,2.1-9,2.1c-4.2,0-7.7-1.5-10.6-4.4
			c-2.9-2.9-4.3-7.4-4.3-13.4c0-5,0.7-11.7,2-19.9c1.3-8.3,3.3-17.5,5.8-27.7s5.9-20.4,10.1-30.6c4.2-10.2,8.8-19.6,13.8-28.2
			c5-8.6,11.1-15.6,18.1-20.9c7.1-5.3,14.5-8,22.3-8c7.6,0,13.4,1.9,17.6,5.7c4.2,3.8,6.3,9.1,6.3,15.9c0,12-3.8,22.5-11.3,31.5
			c9.4,2.5,14.1,9,14.1,19.3c0,5.9-1.4,12.3-4.3,19.4c-2.9,7.1-5.8,13.5-8.7,19.2c-2.9,5.7-4.4,9.9-4.4,12.6c0,3.2,1.7,4.8,5,4.8
			c4.6,0,9.3-2.3,14.2-7c4.8-4.7,8.6-10,11.4-16.1C501.6,114.9,504.8,119.7,504.8,128.6z M425.6,76.3c1.9-1.6,3.3-2.9,4.3-3.8
			c1-0.9,2.5-2.3,4.5-4.3c2-2,3.7-3.6,4.9-5c1.3-1.4,2.7-3.2,4.3-5.3c1.6-2.2,2.9-4.1,3.8-5.9c0.9-1.7,1.7-3.6,2.3-5.7
			c0.6-2,0.9-4,0.9-6c0-2-0.6-2.9-1.9-2.9c-3.4,0-8.1,5.4-14.3,16.3c-6.2,10.8-10.2,19.3-12.2,25.5
			C422.6,78.8,423.7,77.9,425.6,76.3z"/>
		<path fill="#EEEEEE" d="M558.1,128.6c0,7.8-4.8,15.9-14.4,24.1c-9.6,8.3-20.5,12.4-32.8,12.4c-7.4,0-13.1-1.7-17.1-5.1
			s-6-8.3-6-14.6c0-6.6,1.5-14.5,4.4-23.7c2.9-9.2,5.9-19.1,8.8-29.5c2.9-10.4,4.4-20.4,4.4-29.9c4.5-1.5,8.5-2.3,12-2.3
			c5.2,0,9.5,1.4,12.9,4.3c3.4,2.9,5.1,7.3,5.1,13.3c0,7.6-2.6,18-7.9,31.4c-5.2,13.4-7.9,21.4-7.9,24c0,2.9,1.5,4.4,4.4,4.4
			c4.5,0,8.9-2.3,13.3-7c4.4-4.7,8.1-10,11-16.1C554.8,114.9,558.1,119.7,558.1,128.6z M544.6,36.1c-3.4,3.6-8,5.5-13.9,5.5
			c-4.8,0-8.6-1.4-11.6-4.2c-3-2.8-4.5-6.4-4.5-10.9c0-6.2,1.9-10.9,5.6-14.4c3.7-3.4,8.1-5.1,13.3-5.1c4.9,0,8.8,1.5,11.8,4.4
			c2.9,2.9,4.4,6.8,4.4,11.5C549.7,28,548,32.5,544.6,36.1z"/>
	</g>
	<g>
		<path fill="#EEEEEE" d="M102.4,125.9c0,8.3-6.4,16.6-19.1,25.1c-12.7,8.5-26.6,12.7-41.8,12.7c-12.3,0-21.5-3.6-27.5-10.8
			c-6-7.2-9-16.7-9-28.4c0-10.5,2.3-20.9,7-31.2C16.7,83,23.5,74.5,32.4,67.6c8.9-6.9,18.6-10.3,29.1-10.3c18,0,27.1,7.7,27.1,23.1
			c0,6.9-2.1,12.5-6.4,16.9c-4.3,4.4-10,6.6-17.1,6.6c-2.2,0-4.3-0.3-6.2-1s-3.2-1.5-3.9-2.3l-1-1c4.5-4.8,6.7-9.4,6.7-13.8
			c0-3.2-1.4-4.8-4.2-4.8c-5.7,0-10.8,4.3-15.3,12.9s-6.7,18.5-6.7,29.7c0,4.9,1.2,8.6,3.7,11.2c2.4,2.6,5.6,3.9,9.3,3.9
			c10.4,0,19.8-2.8,28.3-8.5c8.5-5.7,14.5-11.3,17.8-16.9C99.4,114,102.4,118.3,102.4,125.9z"/>
		<path fill="#EEEEEE" d="M207.7,127.6c0,7.8-5,15.9-14.9,24.1c-9.9,8.3-21.1,12.4-33.6,12.4c-7.6,0-13.4-1.8-17.5-5.4
			s-6.2-8.7-6.2-15.4c0-5.9,3.1-15.6,9.2-29.1c6.2-13.5,9.2-21.4,9.2-23.6c0-2.2-0.9-3.4-2.7-3.4c-6,0-12.3,4.2-18.8,12.5
			c-6.5,8.3-11.8,18-15.7,29.2c-4,11.1-6.2,21.2-6.6,30.1c-2.4,1.4-5.4,2.1-9,2.1c-4.2,0-7.7-1.5-10.6-4.4
			c-2.9-2.9-4.3-7.4-4.3-13.4c0-5,0.7-11.7,2-19.9s3.3-17.5,5.8-27.7c2.5-10.2,5.9-20.4,10.1-30.6c4.2-10.2,8.8-19.6,13.8-28.2
			c5-8.6,11.1-15.6,18.2-20.9c7.1-5.3,14.5-8,22.3-8c7.6,0,13.4,1.9,17.6,5.7c4.2,3.8,6.3,9.1,6.3,15.9c0,12-3.8,22.5-11.3,31.5
			c9.4,2.5,14.1,9,14.1,19.3c0,5.9-1.4,12.3-4.3,19.4c-2.9,7.1-5.8,13.5-8.7,19.2c-2.9,5.7-4.4,9.9-4.4,12.6c0,3.2,1.7,4.8,5,4.8
			c4.6,0,9.3-2.3,14.2-7c4.8-4.7,8.6-10,11.4-16.1C204.5,113.9,207.7,118.7,207.7,127.6z M128.5,75.3c1.9-1.6,3.3-2.9,4.3-3.8
			c1-0.9,2.5-2.3,4.5-4.3c2-2,3.7-3.6,4.9-5c1.3-1.4,2.7-3.2,4.3-5.3c1.6-2.2,2.9-4.1,3.8-5.9c0.9-1.7,1.7-3.6,2.3-5.7
			c0.6-2,0.9-4,0.9-6c0-2-0.6-2.9-1.9-2.9c-3.4,0-8.1,5.4-14.3,16.3c-6.2,10.8-10.2,19.3-12.2,25.5
			C125.5,77.8,126.6,76.9,128.5,75.3z"/>
		<path fill="#EEEEEE" d="M318.9,127.6c0,8-4.8,16.1-14.3,24.2c-9.5,8.2-20.4,12.3-32.7,12.3c-3.5,0-6.6-0.4-9.4-1.3
			c-2.8-0.8-4.9-1.9-6.4-3c-1.5-1.2-2.7-2.4-3.6-3.7c-0.9-1.3-1.5-2.3-1.8-3.1l-0.4-1.3c-0.3,0.3-0.6,0.7-1,1.3
			c-0.4,0.6-1.5,1.5-3.1,2.9c-1.7,1.4-3.5,2.6-5.6,3.7c-2,1.1-4.8,2-8.3,2.8c-3.5,0.8-7.2,1.3-11.1,1.3c-10.1,0-17.6-3.2-22.7-9.7
			c-5-6.4-7.6-14.8-7.6-25.2c0-20,7.2-37.2,21.7-51.6c14.5-14.4,31.9-21.6,52.4-21.6c21.7,0,32.5,7.2,32.5,21.6c0,1-0.2,2.1-0.5,3.3
			c-0.4,1.2-0.7,2.1-0.9,2.8l-0.6,1.1c-6-4.1-16.4-6.1-31.3-6.1c-12,0-22.4,5-31.2,15c-8.7,10-13.1,21.9-13.1,35.6
			c0,7,2.7,10.5,8.2,10.5c3.6,0,7-1.2,10-3.5c3-2.3,5.6-5.6,7.8-10c2.2-4.3,4-8.5,5.4-12.5c1.4-4,2.9-8.8,4.4-14.4
			c2.9-10.4,9.4-15.5,19.5-15.5c2.2,0,4.3,0.2,6.2,0.5c1.9,0.3,3.2,0.7,3.9,0.9l1.3,0.4c-1.4,4.5-2.9,9.3-4.4,14.4
			c-1.5,5.1-2.7,8.7-3.4,10.9c-0.7,2.2-1.4,4.4-2,6.8c-0.6,2.4-1,4.2-1.3,5.5c-0.2,1.3-0.3,2.5-0.3,3.8c0,6.4,3.1,9.7,9.2,9.7
			c4.8,0,9.6-2.4,14.5-7.2c4.9-4.8,8.5-10.1,10.7-15.8C315.7,113.9,318.9,118.7,318.9,127.6z"/>
		<path fill="#EEEEEE" d="M399.4,125.9c0,8.3-6.4,16.6-19.1,25.1c-12.7,8.5-26.6,12.7-41.8,12.7c-12.3,0-21.5-3.6-27.5-10.8
			c-6-7.2-9-16.7-9-28.4c0-10.5,2.3-20.9,7-31.2c4.7-10.3,11.5-18.8,20.4-25.7c8.9-6.9,18.6-10.3,29.1-10.3c18,0,27.1,7.7,27.1,23.1
			c0,6.9-2.1,12.5-6.4,16.9c-4.3,4.4-10,6.6-17.1,6.6c-2.2,0-4.3-0.3-6.2-1c-1.9-0.7-3.2-1.5-3.9-2.3l-1-1c4.5-4.8,6.7-9.4,6.7-13.8
			c0-3.2-1.4-4.8-4.2-4.8c-5.7,0-10.8,4.3-15.3,12.9c-4.5,8.6-6.7,18.5-6.7,29.7c0,4.9,1.2,8.6,3.7,11.2c2.4,2.6,5.6,3.9,9.3,3.9
			c10.4,0,19.8-2.8,28.3-8.5c8.5-5.7,14.5-11.3,17.8-16.9C396.5,114,399.4,118.3,399.4,125.9z"/>
		<path fill="#EEEEEE" d="M504.8,127.6c0,7.8-5,15.9-14.9,24.1c-9.9,8.3-21.1,12.4-33.6,12.4c-7.6,0-13.4-1.8-17.5-5.4
			s-6.2-8.7-6.2-15.4c0-5.9,3.1-15.6,9.2-29.1c6.2-13.5,9.2-21.4,9.2-23.6c0-2.2-0.9-3.4-2.7-3.4c-6,0-12.3,4.2-18.8,12.5
			c-6.5,8.3-11.8,18-15.7,29.2c-4,11.1-6.2,21.2-6.6,30.1c-2.4,1.4-5.4,2.1-9,2.1c-4.2,0-7.7-1.5-10.6-4.4
			c-2.9-2.9-4.3-7.4-4.3-13.4c0-5,0.7-11.7,2-19.9c1.3-8.3,3.3-17.5,5.8-27.7s5.9-20.4,10.1-30.6c4.2-10.2,8.8-19.6,13.8-28.2
			c5-8.6,11.1-15.6,18.1-20.9c7.1-5.3,14.5-8,22.3-8c7.6,0,13.4,1.9,17.6,5.7c4.2,3.8,6.3,9.1,6.3,15.9c0,12-3.8,22.5-11.3,31.5
			c9.4,2.5,14.1,9,14.1,19.3c0,5.9-1.4,12.3-4.3,19.4c-2.9,7.1-5.8,13.5-8.7,19.2c-2.9,5.7-4.4,9.9-4.4,12.6c0,3.2,1.7,4.8,5,4.8
			c4.6,0,9.3-2.3,14.2-7c4.8-4.7,8.6-10,11.4-16.1C501.6,113.9,504.8,118.7,504.8,127.6z M425.6,75.3c1.9-1.6,3.3-2.9,4.3-3.8
			c1-0.9,2.5-2.3,4.5-4.3c2-2,3.7-3.6,4.9-5c1.3-1.4,2.7-3.2,4.3-5.3c1.6-2.2,2.9-4.1,3.8-5.9c0.9-1.7,1.7-3.6,2.3-5.7
			c0.6-2,0.9-4,0.9-6c0-2-0.6-2.9-1.9-2.9c-3.4,0-8.1,5.4-14.3,16.3c-6.2,10.8-10.2,19.3-12.2,25.5
			C422.6,77.8,423.7,76.9,425.6,75.3z"/>
		<path fill="#EEEEEE" d="M558.1,127.6c0,7.8-4.8,15.9-14.4,24.1c-9.6,8.3-20.5,12.4-32.8,12.4c-7.4,0-13.1-1.7-17.1-5.1
			s-6-8.3-6-14.6c0-6.6,1.5-14.5,4.4-23.7c2.9-9.2,5.9-19.1,8.8-29.5c2.9-10.4,4.4-20.4,4.4-29.9c4.5-1.5,8.5-2.3,12-2.3
			c5.2,0,9.5,1.4,12.9,4.3c3.4,2.9,5.1,7.3,5.1,13.3c0,7.6-2.6,18-7.9,31.4c-5.2,13.4-7.9,21.4-7.9,24c0,2.9,1.5,4.4,4.4,4.4
			c4.5,0,8.9-2.3,13.3-7c4.4-4.7,8.1-10,11-16.1C554.8,113.9,558.1,118.7,558.1,127.6z M544.6,35.1c-3.4,3.6-8,5.5-13.9,5.5
			c-4.8,0-8.6-1.4-11.6-4.2c-3-2.8-4.5-6.4-4.5-10.9c0-6.2,1.9-10.9,5.6-14.4c3.7-3.4,8.1-5.1,13.3-5.1c4.9,0,8.8,1.5,11.8,4.4
			c2.9,2.9,4.4,6.8,4.4,11.5C549.7,27,548,31.5,544.6,35.1z"/>
	</g>
	<g>
		<path fill="#EEEEEE" d="M101.4,125.9c0,8.3-6.4,16.6-19.1,25.1c-12.7,8.5-26.6,12.7-41.8,12.7c-12.3,0-21.5-3.6-27.5-10.8
			c-6-7.2-9-16.7-9-28.4c0-10.5,2.3-20.9,7-31.2C15.7,83,22.5,74.5,31.4,67.6c8.9-6.9,18.6-10.3,29.1-10.3c18,0,27.1,7.7,27.1,23.1
			c0,6.9-2.1,12.5-6.4,16.9c-4.3,4.4-10,6.6-17.1,6.6c-2.2,0-4.3-0.3-6.2-1s-3.2-1.5-3.9-2.3l-1-1c4.5-4.8,6.7-9.4,6.7-13.8
			c0-3.2-1.4-4.8-4.2-4.8c-5.7,0-10.8,4.3-15.3,12.9s-6.7,18.5-6.7,29.7c0,4.9,1.2,8.6,3.7,11.2c2.4,2.6,5.6,3.9,9.3,3.9
			c10.4,0,19.8-2.8,28.3-8.5c8.5-5.7,14.5-11.3,17.8-16.9C98.4,114,101.4,118.3,101.4,125.9z"/>
		<path fill="#EEEEEE" d="M206.7,127.6c0,7.8-5,15.9-14.9,24.1c-9.9,8.3-21.1,12.4-33.6,12.4c-7.6,0-13.4-1.8-17.5-5.4
			s-6.2-8.7-6.2-15.4c0-5.9,3.1-15.6,9.2-29.1c6.2-13.5,9.2-21.4,9.2-23.6c0-2.2-0.9-3.4-2.7-3.4c-6,0-12.3,4.2-18.8,12.5
			c-6.5,8.3-11.8,18-15.7,29.2c-4,11.1-6.2,21.2-6.6,30.1c-2.4,1.4-5.4,2.1-9,2.1c-4.2,0-7.7-1.5-10.6-4.4
			c-2.9-2.9-4.3-7.4-4.3-13.4c0-5,0.7-11.7,2-19.9s3.3-17.5,5.8-27.7c2.5-10.2,5.9-20.4,10.1-30.6c4.2-10.2,8.8-19.6,13.8-28.2
			c5-8.6,11.1-15.6,18.2-20.9c7.1-5.3,14.5-8,22.3-8c7.6,0,13.4,1.9,17.6,5.7c4.2,3.8,6.3,9.1,6.3,15.9c0,12-3.8,22.5-11.3,31.5
			c9.4,2.5,14.1,9,14.1,19.3c0,5.9-1.4,12.3-4.3,19.4c-2.9,7.1-5.8,13.5-8.7,19.2c-2.9,5.7-4.4,9.9-4.4,12.6c0,3.2,1.7,4.8,5,4.8
			c4.6,0,9.3-2.3,14.2-7c4.8-4.7,8.6-10,11.4-16.1C203.5,113.9,206.7,118.7,206.7,127.6z M127.5,75.3c1.9-1.6,3.3-2.9,4.3-3.8
			c1-0.9,2.5-2.3,4.5-4.3c2-2,3.7-3.6,4.9-5c1.3-1.4,2.7-3.2,4.3-5.3c1.6-2.2,2.9-4.1,3.8-5.9c0.9-1.7,1.7-3.6,2.3-5.7
			c0.6-2,0.9-4,0.9-6c0-2-0.6-2.9-1.9-2.9c-3.4,0-8.1,5.4-14.3,16.3c-6.2,10.8-10.2,19.3-12.2,25.5
			C124.5,77.8,125.6,76.9,127.5,75.3z"/>
		<path fill="#EEEEEE" d="M317.9,127.6c0,8-4.8,16.1-14.3,24.2c-9.5,8.2-20.4,12.3-32.7,12.3c-3.5,0-6.6-0.4-9.4-1.3
			c-2.8-0.8-4.9-1.9-6.4-3c-1.5-1.2-2.7-2.4-3.6-3.7c-0.9-1.3-1.5-2.3-1.8-3.1l-0.4-1.3c-0.3,0.3-0.6,0.7-1,1.3
			c-0.4,0.6-1.5,1.5-3.1,2.9c-1.7,1.4-3.5,2.6-5.6,3.7c-2,1.1-4.8,2-8.3,2.8c-3.5,0.8-7.2,1.3-11.1,1.3c-10.1,0-17.6-3.2-22.7-9.7
			c-5-6.4-7.6-14.8-7.6-25.2c0-20,7.2-37.2,21.7-51.6c14.5-14.4,31.9-21.6,52.4-21.6c21.7,0,32.5,7.2,32.5,21.6c0,1-0.2,2.1-0.5,3.3
			c-0.4,1.2-0.7,2.1-0.9,2.8l-0.6,1.1c-6-4.1-16.4-6.1-31.3-6.1c-12,0-22.4,5-31.2,15c-8.7,10-13.1,21.9-13.1,35.6
			c0,7,2.7,10.5,8.2,10.5c3.6,0,7-1.2,10-3.5c3-2.3,5.6-5.6,7.8-10c2.2-4.3,4-8.5,5.4-12.5c1.4-4,2.9-8.8,4.4-14.4
			c2.9-10.4,9.4-15.5,19.5-15.5c2.2,0,4.3,0.2,6.2,0.5c1.9,0.3,3.2,0.7,3.9,0.9l1.3,0.4c-1.4,4.5-2.9,9.3-4.4,14.4
			c-1.5,5.1-2.7,8.7-3.4,10.9c-0.7,2.2-1.4,4.4-2,6.8c-0.6,2.4-1,4.2-1.3,5.5c-0.2,1.3-0.3,2.5-0.3,3.8c0,6.4,3.1,9.7,9.2,9.7
			c4.8,0,9.6-2.4,14.5-7.2c4.9-4.8,8.5-10.1,10.7-15.8C314.7,113.9,317.9,118.7,317.9,127.6z"/>
		<path fill="#EEEEEE" d="M398.4,125.9c0,8.3-6.4,16.6-19.1,25.1c-12.7,8.5-26.6,12.7-41.8,12.7c-12.3,0-21.5-3.6-27.5-10.8
			c-6-7.2-9-16.7-9-28.4c0-10.5,2.3-20.9,7-31.2c4.7-10.3,11.5-18.8,20.4-25.7c8.9-6.9,18.6-10.3,29.1-10.3c18,0,27.1,7.7,27.1,23.1
			c0,6.9-2.1,12.5-6.4,16.9c-4.3,4.4-10,6.6-17.1,6.6c-2.2,0-4.3-0.3-6.2-1c-1.9-0.7-3.2-1.5-3.9-2.3l-1-1c4.5-4.8,6.7-9.4,6.7-13.8
			c0-3.2-1.4-4.8-4.2-4.8c-5.7,0-10.8,4.3-15.3,12.9c-4.5,8.6-6.7,18.5-6.7,29.7c0,4.9,1.2,8.6,3.7,11.2c2.4,2.6,5.6,3.9,9.3,3.9
			c10.4,0,19.8-2.8,28.3-8.5c8.5-5.7,14.5-11.3,17.8-16.9C395.5,114,398.4,118.3,398.4,125.9z"/>
		<path fill="#EEEEEE" d="M503.8,127.6c0,7.8-5,15.9-14.9,24.1c-9.9,8.3-21.1,12.4-33.6,12.4c-7.6,0-13.4-1.8-17.5-5.4
			s-6.2-8.7-6.2-15.4c0-5.9,3.1-15.6,9.2-29.1c6.2-13.5,9.2-21.4,9.2-23.6c0-2.2-0.9-3.4-2.7-3.4c-6,0-12.3,4.2-18.8,12.5
			c-6.5,8.3-11.8,18-15.7,29.2c-4,11.1-6.2,21.2-6.6,30.1c-2.4,1.4-5.4,2.1-9,2.1c-4.2,0-7.7-1.5-10.6-4.4
			c-2.9-2.9-4.3-7.4-4.3-13.4c0-5,0.7-11.7,2-19.9c1.3-8.3,3.3-17.5,5.8-27.7s5.9-20.4,10.1-30.6c4.2-10.2,8.8-19.6,13.8-28.2
			c5-8.6,11.1-15.6,18.1-20.9c7.1-5.3,14.5-8,22.3-8c7.6,0,13.4,1.9,17.6,5.7c4.2,3.8,6.3,9.1,6.3,15.9c0,12-3.8,22.5-11.3,31.5
			c9.4,2.5,14.1,9,14.1,19.3c0,5.9-1.4,12.3-4.3,19.4c-2.9,7.1-5.8,13.5-8.7,19.2c-2.9,5.7-4.4,9.9-4.4,12.6c0,3.2,1.7,4.8,5,4.8
			c4.6,0,9.3-2.3,14.2-7c4.8-4.7,8.6-10,11.4-16.1C500.6,113.9,503.8,118.7,503.8,127.6z M424.6,75.3c1.9-1.6,3.3-2.9,4.3-3.8
			c1-0.9,2.5-2.3,4.5-4.3c2-2,3.7-3.6,4.9-5c1.3-1.4,2.7-3.2,4.3-5.3c1.6-2.2,2.9-4.1,3.8-5.9c0.9-1.7,1.7-3.6,2.3-5.7
			c0.6-2,0.9-4,0.9-6c0-2-0.6-2.9-1.9-2.9c-3.4,0-8.1,5.4-14.3,16.3c-6.2,10.8-10.2,19.3-12.2,25.5
			C421.6,77.8,422.7,76.9,424.6,75.3z"/>
		<path fill="#EEEEEE" d="M557.1,127.6c0,7.8-4.8,15.9-14.4,24.1c-9.6,8.3-20.5,12.4-32.8,12.4c-7.4,0-13.1-1.7-17.1-5.1
			s-6-8.3-6-14.6c0-6.6,1.5-14.5,4.4-23.7c2.9-9.2,5.9-19.1,8.8-29.5c2.9-10.4,4.4-20.4,4.4-29.9c4.5-1.5,8.5-2.3,12-2.3
			c5.2,0,9.5,1.4,12.9,4.3c3.4,2.9,5.1,7.3,5.1,13.3c0,7.6-2.6,18-7.9,31.4c-5.2,13.4-7.9,21.4-7.9,24c0,2.9,1.5,4.4,4.4,4.4
			c4.5,0,8.9-2.3,13.3-7c4.4-4.7,8.1-10,11-16.1C553.8,113.9,557.1,118.7,557.1,127.6z M543.6,35.1c-3.4,3.6-8,5.5-13.9,5.5
			c-4.8,0-8.6-1.4-11.6-4.2c-3-2.8-4.5-6.4-4.5-10.9c0-6.2,1.9-10.9,5.6-14.4c3.7-3.4,8.1-5.1,13.3-5.1c4.9,0,8.8,1.5,11.8,4.4
			c2.9,2.9,4.4,6.8,4.4,11.5C548.7,27,547,31.5,543.6,35.1z"/>
	</g>
	<g>
		<path fill="#EEEEEE" d="M101.4,124.9c0,8.3-6.4,16.6-19.1,25.1c-12.7,8.5-26.6,12.7-41.8,12.7c-12.3,0-21.5-3.6-27.5-10.8
			c-6-7.2-9-16.7-9-28.4c0-10.5,2.3-20.9,7-31.2C15.7,82,22.5,73.5,31.4,66.6c8.9-6.9,18.6-10.3,29.1-10.3c18,0,27.1,7.7,27.1,23.1
			c0,6.9-2.1,12.5-6.4,16.9c-4.3,4.4-10,6.6-17.1,6.6c-2.2,0-4.3-0.3-6.2-1s-3.2-1.5-3.9-2.3l-1-1c4.5-4.8,6.7-9.4,6.7-13.8
			c0-3.2-1.4-4.8-4.2-4.8c-5.7,0-10.8,4.3-15.3,12.9s-6.7,18.5-6.7,29.7c0,4.9,1.2,8.6,3.7,11.2c2.4,2.6,5.6,3.9,9.3,3.9
			c10.4,0,19.8-2.8,28.3-8.5c8.5-5.7,14.5-11.3,17.8-16.9C98.4,113,101.4,117.3,101.4,124.9z"/>
		<path fill="#EEEEEE" d="M206.7,126.6c0,7.8-5,15.9-14.9,24.1c-9.9,8.3-21.1,12.4-33.6,12.4c-7.6,0-13.4-1.8-17.5-5.4
			s-6.2-8.7-6.2-15.4c0-5.9,3.1-15.6,9.2-29.1c6.2-13.5,9.2-21.4,9.2-23.6c0-2.2-0.9-3.4-2.7-3.4c-6,0-12.3,4.2-18.8,12.5
			c-6.5,8.3-11.8,18-15.7,29.2c-4,11.1-6.2,21.2-6.6,30.1c-2.4,1.4-5.4,2.1-9,2.1c-4.2,0-7.7-1.5-10.6-4.4
			c-2.9-2.9-4.3-7.4-4.3-13.4c0-5,0.7-11.7,2-19.9s3.3-17.5,5.8-27.7c2.5-10.2,5.9-20.4,10.1-30.6c4.2-10.2,8.8-19.6,13.8-28.2
			c5-8.6,11.1-15.6,18.2-20.9c7.1-5.3,14.5-8,22.3-8c7.6,0,13.4,1.9,17.6,5.7c4.2,3.8,6.3,9.1,6.3,15.9c0,12-3.8,22.5-11.3,31.5
			c9.4,2.5,14.1,9,14.1,19.3c0,5.9-1.4,12.3-4.3,19.4c-2.9,7.1-5.8,13.5-8.7,19.2c-2.9,5.7-4.4,9.9-4.4,12.6c0,3.2,1.7,4.8,5,4.8
			c4.6,0,9.3-2.3,14.2-7c4.8-4.7,8.6-10,11.4-16.1C203.5,112.9,206.7,117.7,206.7,126.6z M127.5,74.3c1.9-1.6,3.3-2.9,4.3-3.8
			c1-0.9,2.5-2.3,4.5-4.3c2-2,3.7-3.6,4.9-5c1.3-1.4,2.7-3.2,4.3-5.3c1.6-2.2,2.9-4.1,3.8-5.9c0.9-1.7,1.7-3.6,2.3-5.7
			c0.6-2,0.9-4,0.9-6c0-2-0.6-2.9-1.9-2.9c-3.4,0-8.1,5.4-14.3,16.3c-6.2,10.8-10.2,19.3-12.2,25.5
			C124.5,76.8,125.6,75.9,127.5,74.3z"/>
		<path fill="#EEEEEE" d="M317.9,126.6c0,8-4.8,16.1-14.3,24.2c-9.5,8.2-20.4,12.3-32.7,12.3c-3.5,0-6.6-0.4-9.4-1.3
			c-2.8-0.8-4.9-1.9-6.4-3c-1.5-1.2-2.7-2.4-3.6-3.7c-0.9-1.3-1.5-2.3-1.8-3.1l-0.4-1.3c-0.3,0.3-0.6,0.7-1,1.3
			c-0.4,0.6-1.5,1.5-3.1,2.9c-1.7,1.4-3.5,2.6-5.6,3.7c-2,1.1-4.8,2-8.3,2.8c-3.5,0.8-7.2,1.3-11.1,1.3c-10.1,0-17.6-3.2-22.7-9.7
			c-5-6.4-7.6-14.8-7.6-25.2c0-20,7.2-37.2,21.7-51.6c14.5-14.4,31.9-21.6,52.4-21.6c21.7,0,32.5,7.2,32.5,21.6c0,1-0.2,2.1-0.5,3.3
			c-0.4,1.2-0.7,2.1-0.9,2.8l-0.6,1.1c-6-4.1-16.4-6.1-31.3-6.1c-12,0-22.4,5-31.2,15c-8.7,10-13.1,21.9-13.1,35.6
			c0,7,2.7,10.5,8.2,10.5c3.6,0,7-1.2,10-3.5c3-2.3,5.6-5.6,7.8-10c2.2-4.3,4-8.5,5.4-12.5c1.4-4,2.9-8.8,4.4-14.4
			c2.9-10.4,9.4-15.5,19.5-15.5c2.2,0,4.3,0.2,6.2,0.5c1.9,0.3,3.2,0.7,3.9,0.9l1.3,0.4c-1.4,4.5-2.9,9.3-4.4,14.4
			c-1.5,5.1-2.7,8.7-3.4,10.9c-0.7,2.2-1.4,4.4-2,6.8c-0.6,2.4-1,4.2-1.3,5.5c-0.2,1.3-0.3,2.5-0.3,3.8c0,6.4,3.1,9.7,9.2,9.7
			c4.8,0,9.6-2.4,14.5-7.2c4.9-4.8,8.5-10.1,10.7-15.8C314.7,112.9,317.9,117.7,317.9,126.6z"/>
		<path fill="#EEEEEE" d="M398.4,124.9c0,8.3-6.4,16.6-19.1,25.1c-12.7,8.5-26.6,12.7-41.8,12.7c-12.3,0-21.5-3.6-27.5-10.8
			c-6-7.2-9-16.7-9-28.4c0-10.5,2.3-20.9,7-31.2c4.7-10.3,11.5-18.8,20.4-25.7c8.9-6.9,18.6-10.3,29.1-10.3c18,0,27.1,7.7,27.1,23.1
			c0,6.9-2.1,12.5-6.4,16.9c-4.3,4.4-10,6.6-17.1,6.6c-2.2,0-4.3-0.3-6.2-1c-1.9-0.7-3.2-1.5-3.9-2.3l-1-1c4.5-4.8,6.7-9.4,6.7-13.8
			c0-3.2-1.4-4.8-4.2-4.8c-5.7,0-10.8,4.3-15.3,12.9c-4.5,8.6-6.7,18.5-6.7,29.7c0,4.9,1.2,8.6,3.7,11.2c2.4,2.6,5.6,3.9,9.3,3.9
			c10.4,0,19.8-2.8,28.3-8.5c8.5-5.7,14.5-11.3,17.8-16.9C395.5,113,398.4,117.3,398.4,124.9z"/>
		<path fill="#EEEEEE" d="M503.8,126.6c0,7.8-5,15.9-14.9,24.1c-9.9,8.3-21.1,12.4-33.6,12.4c-7.6,0-13.4-1.8-17.5-5.4
			s-6.2-8.7-6.2-15.4c0-5.9,3.1-15.6,9.2-29.1c6.2-13.5,9.2-21.4,9.2-23.6c0-2.2-0.9-3.4-2.7-3.4c-6,0-12.3,4.2-18.8,12.5
			c-6.5,8.3-11.8,18-15.7,29.2c-4,11.1-6.2,21.2-6.6,30.1c-2.4,1.4-5.4,2.1-9,2.1c-4.2,0-7.7-1.5-10.6-4.4
			c-2.9-2.9-4.3-7.4-4.3-13.4c0-5,0.7-11.7,2-19.9c1.3-8.3,3.3-17.5,5.8-27.7s5.9-20.4,10.1-30.6c4.2-10.2,8.8-19.6,13.8-28.2
			c5-8.6,11.1-15.6,18.1-20.9c7.1-5.3,14.5-8,22.3-8c7.6,0,13.4,1.9,17.6,5.7c4.2,3.8,6.3,9.1,6.3,15.9c0,12-3.8,22.5-11.3,31.5
			c9.4,2.5,14.1,9,14.1,19.3c0,5.9-1.4,12.3-4.3,19.4c-2.9,7.1-5.8,13.5-8.7,19.2c-2.9,5.7-4.4,9.9-4.4,12.6c0,3.2,1.7,4.8,5,4.8
			c4.6,0,9.3-2.3,14.2-7c4.8-4.7,8.6-10,11.4-16.1C500.6,112.9,503.8,117.7,503.8,126.6z M424.6,74.3c1.9-1.6,3.3-2.9,4.3-3.8
			c1-0.9,2.5-2.3,4.5-4.3c2-2,3.7-3.6,4.9-5c1.3-1.4,2.7-3.2,4.3-5.3c1.6-2.2,2.9-4.1,3.8-5.9c0.9-1.7,1.7-3.6,2.3-5.7
			c0.6-2,0.9-4,0.9-6c0-2-0.6-2.9-1.9-2.9c-3.4,0-8.1,5.4-14.3,16.3c-6.2,10.8-10.2,19.3-12.2,25.5
			C421.6,76.8,422.7,75.9,424.6,74.3z"/>
		<path fill="#EEEEEE" d="M557.1,126.6c0,7.8-4.8,15.9-14.4,24.1c-9.6,8.3-20.5,12.4-32.8,12.4c-7.4,0-13.1-1.7-17.1-5.1
			s-6-8.3-6-14.6c0-6.6,1.5-14.5,4.4-23.7c2.9-9.2,5.9-19.1,8.8-29.5c2.9-10.4,4.4-20.4,4.4-29.9c4.5-1.5,8.5-2.3,12-2.3
			c5.2,0,9.5,1.4,12.9,4.3c3.4,2.9,5.1,7.3,5.1,13.3c0,7.6-2.6,18-7.9,31.4c-5.2,13.4-7.9,21.4-7.9,24c0,2.9,1.5,4.4,4.4,4.4
			c4.5,0,8.9-2.3,13.3-7c4.4-4.7,8.1-10,11-16.1C553.8,112.9,557.1,117.7,557.1,126.6z M543.6,34.1c-3.4,3.6-8,5.5-13.9,5.5
			c-4.8,0-8.6-1.4-11.6-4.2c-3-2.8-4.5-6.4-4.5-10.9c0-6.2,1.9-10.9,5.6-14.4c3.7-3.4,8.1-5.1,13.3-5.1c4.9,0,8.8,1.5,11.8,4.4
			c2.9,2.9,4.4,6.8,4.4,11.5C548.7,26,547,30.5,543.6,34.1z"/>
	</g>
	<g>
		<path fill="#EEEEEE" d="M100.4,124.9c0,8.3-6.4,16.6-19.1,25.1c-12.7,8.5-26.6,12.7-41.8,12.7c-12.3,0-21.5-3.6-27.5-10.8
			c-6-7.2-9-16.7-9-28.4c0-10.5,2.3-20.9,7-31.2C14.7,82,21.5,73.5,30.4,66.6c8.9-6.9,18.6-10.3,29.1-10.3c18,0,27.1,7.7,27.1,23.1
			c0,6.9-2.1,12.5-6.4,16.9c-4.3,4.4-10,6.6-17.1,6.6c-2.2,0-4.3-0.3-6.2-1s-3.2-1.5-3.9-2.3l-1-1c4.5-4.8,6.7-9.4,6.7-13.8
			c0-3.2-1.4-4.8-4.2-4.8c-5.7,0-10.8,4.3-15.3,12.9s-6.7,18.5-6.7,29.7c0,4.9,1.2,8.6,3.7,11.2c2.4,2.6,5.6,3.9,9.3,3.9
			c10.4,0,19.8-2.8,28.3-8.5c8.5-5.7,14.5-11.3,17.8-16.9C97.4,113,100.4,117.3,100.4,124.9z"/>
		<path fill="#EEEEEE" d="M205.7,126.6c0,7.8-5,15.9-14.9,24.1c-9.9,8.3-21.1,12.4-33.6,12.4c-7.6,0-13.4-1.8-17.5-5.4
			s-6.2-8.7-6.2-15.4c0-5.9,3.1-15.6,9.2-29.1c6.2-13.5,9.2-21.4,9.2-23.6c0-2.2-0.9-3.4-2.7-3.4c-6,0-12.3,4.2-18.8,12.5
			c-6.5,8.3-11.8,18-15.7,29.2c-4,11.1-6.2,21.2-6.6,30.1c-2.4,1.4-5.4,2.1-9,2.1c-4.2,0-7.7-1.5-10.6-4.4
			c-2.9-2.9-4.3-7.4-4.3-13.4c0-5,0.7-11.7,2-19.9s3.3-17.5,5.8-27.7c2.5-10.2,5.9-20.4,10.1-30.6c4.2-10.2,8.8-19.6,13.8-28.2
			c5-8.6,11.1-15.6,18.2-20.9c7.1-5.3,14.5-8,22.3-8c7.6,0,13.4,1.9,17.6,5.7c4.2,3.8,6.3,9.1,6.3,15.9c0,12-3.8,22.5-11.3,31.5
			c9.4,2.5,14.1,9,14.1,19.3c0,5.9-1.4,12.3-4.3,19.4c-2.9,7.1-5.8,13.5-8.7,19.2c-2.9,5.7-4.4,9.9-4.4,12.6c0,3.2,1.7,4.8,5,4.8
			c4.6,0,9.3-2.3,14.2-7c4.8-4.7,8.6-10,11.4-16.1C202.5,112.9,205.7,117.7,205.7,126.6z M126.5,74.3c1.9-1.6,3.3-2.9,4.3-3.8
			c1-0.9,2.5-2.3,4.5-4.3c2-2,3.7-3.6,4.9-5c1.3-1.4,2.7-3.2,4.3-5.3c1.6-2.2,2.9-4.1,3.8-5.9c0.9-1.7,1.7-3.6,2.3-5.7
			c0.6-2,0.9-4,0.9-6c0-2-0.6-2.9-1.9-2.9c-3.4,0-8.1,5.4-14.3,16.3c-6.2,10.8-10.2,19.3-12.2,25.5
			C123.5,76.8,124.6,75.9,126.5,74.3z"/>
		<path fill="#EEEEEE" d="M316.9,126.6c0,8-4.8,16.1-14.3,24.2c-9.5,8.2-20.4,12.3-32.7,12.3c-3.5,0-6.6-0.4-9.4-1.3
			c-2.8-0.8-4.9-1.9-6.4-3c-1.5-1.2-2.7-2.4-3.6-3.7c-0.9-1.3-1.5-2.3-1.8-3.1l-0.4-1.3c-0.3,0.3-0.6,0.7-1,1.3
			c-0.4,0.6-1.5,1.5-3.1,2.9c-1.7,1.4-3.5,2.6-5.6,3.7c-2,1.1-4.8,2-8.3,2.8c-3.5,0.8-7.2,1.3-11.1,1.3c-10.1,0-17.6-3.2-22.7-9.7
			c-5-6.4-7.6-14.8-7.6-25.2c0-20,7.2-37.2,21.7-51.6c14.5-14.4,31.9-21.6,52.4-21.6c21.7,0,32.5,7.2,32.5,21.6c0,1-0.2,2.1-0.5,3.3
			c-0.4,1.2-0.7,2.1-0.9,2.8l-0.6,1.1c-6-4.1-16.4-6.1-31.3-6.1c-12,0-22.4,5-31.2,15c-8.7,10-13.1,21.9-13.1,35.6
			c0,7,2.7,10.5,8.2,10.5c3.6,0,7-1.2,10-3.5c3-2.3,5.6-5.6,7.8-10c2.2-4.3,4-8.5,5.4-12.5c1.4-4,2.9-8.8,4.4-14.4
			c2.9-10.4,9.4-15.5,19.5-15.5c2.2,0,4.3,0.2,6.2,0.5c1.9,0.3,3.2,0.7,3.9,0.9l1.3,0.4c-1.4,4.5-2.9,9.3-4.4,14.4
			c-1.5,5.1-2.7,8.7-3.4,10.9c-0.7,2.2-1.4,4.4-2,6.8c-0.6,2.4-1,4.2-1.3,5.5c-0.2,1.3-0.3,2.5-0.3,3.8c0,6.4,3.1,9.7,9.2,9.7
			c4.8,0,9.6-2.4,14.5-7.2c4.9-4.8,8.5-10.1,10.7-15.8C313.7,112.9,316.9,117.7,316.9,126.6z"/>
		<path fill="#EEEEEE" d="M397.4,124.9c0,8.3-6.4,16.6-19.1,25.1c-12.7,8.5-26.6,12.7-41.8,12.7c-12.3,0-21.5-3.6-27.5-10.8
			c-6-7.2-9-16.7-9-28.4c0-10.5,2.3-20.9,7-31.2c4.7-10.3,11.5-18.8,20.4-25.7c8.9-6.9,18.6-10.3,29.1-10.3c18,0,27.1,7.7,27.1,23.1
			c0,6.9-2.1,12.5-6.4,16.9c-4.3,4.4-10,6.6-17.1,6.6c-2.2,0-4.3-0.3-6.2-1c-1.9-0.7-3.2-1.5-3.9-2.3l-1-1c4.5-4.8,6.7-9.4,6.7-13.8
			c0-3.2-1.4-4.8-4.2-4.8c-5.7,0-10.8,4.3-15.3,12.9c-4.5,8.6-6.7,18.5-6.7,29.7c0,4.9,1.2,8.6,3.7,11.2c2.4,2.6,5.6,3.9,9.3,3.9
			c10.4,0,19.8-2.8,28.3-8.5c8.5-5.7,14.5-11.3,17.8-16.9C394.5,113,397.4,117.3,397.4,124.9z"/>
		<path fill="#EEEEEE" d="M502.8,126.6c0,7.8-5,15.9-14.9,24.1c-9.9,8.3-21.1,12.4-33.6,12.4c-7.6,0-13.4-1.8-17.5-5.4
			s-6.2-8.7-6.2-15.4c0-5.9,3.1-15.6,9.2-29.1c6.2-13.5,9.2-21.4,9.2-23.6c0-2.2-0.9-3.4-2.7-3.4c-6,0-12.3,4.2-18.8,12.5
			c-6.5,8.3-11.8,18-15.7,29.2c-4,11.1-6.2,21.2-6.6,30.1c-2.4,1.4-5.4,2.1-9,2.1c-4.2,0-7.7-1.5-10.6-4.4
			c-2.9-2.9-4.3-7.4-4.3-13.4c0-5,0.7-11.7,2-19.9c1.3-8.3,3.3-17.5,5.8-27.7s5.9-20.4,10.1-30.6c4.2-10.2,8.8-19.6,13.8-28.2
			c5-8.6,11.1-15.6,18.1-20.9c7.1-5.3,14.5-8,22.3-8c7.6,0,13.4,1.9,17.6,5.7c4.2,3.8,6.3,9.1,6.3,15.9c0,12-3.8,22.5-11.3,31.5
			c9.4,2.5,14.1,9,14.1,19.3c0,5.9-1.4,12.3-4.3,19.4c-2.9,7.1-5.8,13.5-8.7,19.2c-2.9,5.7-4.4,9.9-4.4,12.6c0,3.2,1.7,4.8,5,4.8
			c4.6,0,9.3-2.3,14.2-7c4.8-4.7,8.6-10,11.4-16.1C499.6,112.9,502.8,117.7,502.8,126.6z M423.6,74.3c1.9-1.6,3.3-2.9,4.3-3.8
			c1-0.9,2.5-2.3,4.5-4.3c2-2,3.7-3.6,4.9-5c1.3-1.4,2.7-3.2,4.3-5.3c1.6-2.2,2.9-4.1,3.8-5.9c0.9-1.7,1.7-3.6,2.3-5.7
			c0.6-2,0.9-4,0.9-6c0-2-0.6-2.9-1.9-2.9c-3.4,0-8.1,5.4-14.3,16.3c-6.2,10.8-10.2,19.3-12.2,25.5
			C420.6,76.8,421.7,75.9,423.6,74.3z"/>
		<path fill="#EEEEEE" d="M556.1,126.6c0,7.8-4.8,15.9-14.4,24.1c-9.6,8.3-20.5,12.4-32.8,12.4c-7.4,0-13.1-1.7-17.1-5.1
			s-6-8.3-6-14.6c0-6.6,1.5-14.5,4.4-23.7c2.9-9.2,5.9-19.1,8.8-29.5c2.9-10.4,4.4-20.4,4.4-29.9c4.5-1.5,8.5-2.3,12-2.3
			c5.2,0,9.5,1.4,12.9,4.3c3.4,2.9,5.1,7.3,5.1,13.3c0,7.6-2.6,18-7.9,31.4c-5.2,13.4-7.9,21.4-7.9,24c0,2.9,1.5,4.4,4.4,4.4
			c4.5,0,8.9-2.3,13.3-7c4.4-4.7,8.1-10,11-16.1C552.8,112.9,556.1,117.7,556.1,126.6z M542.6,34.1c-3.4,3.6-8,5.5-13.9,5.5
			c-4.8,0-8.6-1.4-11.6-4.2c-3-2.8-4.5-6.4-4.5-10.9c0-6.2,1.9-10.9,5.6-14.4c3.7-3.4,8.1-5.1,13.3-5.1c4.9,0,8.8,1.5,11.8,4.4
			c2.9,2.9,4.4,6.8,4.4,11.5C547.7,26,546,30.5,542.6,34.1z"/>
	</g>
	<g>
		<path fill="#EEEEEE" d="M100.4,123.9c0,8.3-6.4,16.6-19.1,25.1c-12.7,8.5-26.6,12.7-41.8,12.7c-12.3,0-21.5-3.6-27.5-10.8
			c-6-7.2-9-16.7-9-28.4c0-10.5,2.3-20.9,7-31.2C14.7,81,21.5,72.5,30.4,65.6c8.9-6.9,18.6-10.3,29.1-10.3c18,0,27.1,7.7,27.1,23.1
			c0,6.9-2.1,12.5-6.4,16.9c-4.3,4.4-10,6.6-17.1,6.6c-2.2,0-4.3-0.3-6.2-1s-3.2-1.5-3.9-2.3l-1-1c4.5-4.8,6.7-9.4,6.7-13.8
			c0-3.2-1.4-4.8-4.2-4.8c-5.7,0-10.8,4.3-15.3,12.9s-6.7,18.5-6.7,29.7c0,4.9,1.2,8.6,3.7,11.2c2.4,2.6,5.6,3.9,9.3,3.9
			c10.4,0,19.8-2.8,28.3-8.5c8.5-5.7,14.5-11.3,17.8-16.9C97.4,112,100.4,116.3,100.4,123.9z"/>
		<path fill="#EEEEEE" d="M205.7,125.6c0,7.8-5,15.9-14.9,24.1c-9.9,8.3-21.1,12.4-33.6,12.4c-7.6,0-13.4-1.8-17.5-5.4
			s-6.2-8.7-6.2-15.4c0-5.9,3.1-15.6,9.2-29.1c6.2-13.5,9.2-21.4,9.2-23.6c0-2.2-0.9-3.4-2.7-3.4c-6,0-12.3,4.2-18.8,12.5
			c-6.5,8.3-11.8,18-15.7,29.2c-4,11.1-6.2,21.2-6.6,30.1c-2.4,1.4-5.4,2.1-9,2.1c-4.2,0-7.7-1.5-10.6-4.4
			c-2.9-2.9-4.3-7.4-4.3-13.4c0-5,0.7-11.7,2-19.9s3.3-17.5,5.8-27.7c2.5-10.2,5.9-20.4,10.1-30.6c4.2-10.2,8.8-19.6,13.8-28.2
			c5-8.6,11.1-15.6,18.2-20.9c7.1-5.3,14.5-8,22.3-8c7.6,0,13.4,1.9,17.6,5.7c4.2,3.8,6.3,9.1,6.3,15.9c0,12-3.8,22.5-11.3,31.5
			c9.4,2.5,14.1,9,14.1,19.3c0,5.9-1.4,12.3-4.3,19.4c-2.9,7.1-5.8,13.5-8.7,19.2c-2.9,5.7-4.4,9.9-4.4,12.6c0,3.2,1.7,4.8,5,4.8
			c4.6,0,9.3-2.3,14.2-7c4.8-4.7,8.6-10,11.4-16.1C202.5,111.9,205.7,116.7,205.7,125.6z M126.5,73.3c1.9-1.6,3.3-2.9,4.3-3.8
			c1-0.9,2.5-2.3,4.5-4.3c2-2,3.7-3.6,4.9-5c1.3-1.4,2.7-3.2,4.3-5.3c1.6-2.2,2.9-4.1,3.8-5.9c0.9-1.7,1.7-3.6,2.3-5.7
			c0.6-2,0.9-4,0.9-6c0-2-0.6-2.9-1.9-2.9c-3.4,0-8.1,5.4-14.3,16.3c-6.2,10.8-10.2,19.3-12.2,25.5
			C123.5,75.8,124.6,74.9,126.5,73.3z"/>
		<path fill="#EEEEEE" d="M316.9,125.6c0,8-4.8,16.1-14.3,24.2c-9.5,8.2-20.4,12.3-32.7,12.3c-3.5,0-6.6-0.4-9.4-1.3
			c-2.8-0.8-4.9-1.9-6.4-3c-1.5-1.2-2.7-2.4-3.6-3.7c-0.9-1.3-1.5-2.3-1.8-3.1l-0.4-1.3c-0.3,0.3-0.6,0.7-1,1.3
			c-0.4,0.6-1.5,1.5-3.1,2.9c-1.7,1.4-3.5,2.6-5.6,3.7c-2,1.1-4.8,2-8.3,2.8c-3.5,0.8-7.2,1.3-11.1,1.3c-10.1,0-17.6-3.2-22.7-9.7
			c-5-6.4-7.6-14.8-7.6-25.2c0-20,7.2-37.2,21.7-51.6c14.5-14.4,31.9-21.6,52.4-21.6c21.7,0,32.5,7.2,32.5,21.6c0,1-0.2,2.1-0.5,3.3
			c-0.4,1.2-0.7,2.1-0.9,2.8l-0.6,1.1c-6-4.1-16.4-6.1-31.3-6.1c-12,0-22.4,5-31.2,15c-8.7,10-13.1,21.9-13.1,35.6
			c0,7,2.7,10.5,8.2,10.5c3.6,0,7-1.2,10-3.5c3-2.3,5.6-5.6,7.8-10c2.2-4.3,4-8.5,5.4-12.5c1.4-4,2.9-8.8,4.4-14.4
			c2.9-10.4,9.4-15.5,19.5-15.5c2.2,0,4.3,0.2,6.2,0.5c1.9,0.3,3.2,0.7,3.9,0.9l1.3,0.4c-1.4,4.5-2.9,9.3-4.4,14.4
			c-1.5,5.1-2.7,8.7-3.4,10.9c-0.7,2.2-1.4,4.4-2,6.8c-0.6,2.4-1,4.2-1.3,5.5c-0.2,1.3-0.3,2.5-0.3,3.8c0,6.4,3.1,9.7,9.2,9.7
			c4.8,0,9.6-2.4,14.5-7.2c4.9-4.8,8.5-10.1,10.7-15.8C313.7,111.9,316.9,116.7,316.9,125.6z"/>
		<path fill="#EEEEEE" d="M397.4,123.9c0,8.3-6.4,16.6-19.1,25.1c-12.7,8.5-26.6,12.7-41.8,12.7c-12.3,0-21.5-3.6-27.5-10.8
			c-6-7.2-9-16.7-9-28.4c0-10.5,2.3-20.9,7-31.2c4.7-10.3,11.5-18.8,20.4-25.7c8.9-6.9,18.6-10.3,29.1-10.3c18,0,27.1,7.7,27.1,23.1
			c0,6.9-2.1,12.5-6.4,16.9c-4.3,4.4-10,6.6-17.1,6.6c-2.2,0-4.3-0.3-6.2-1c-1.9-0.7-3.2-1.5-3.9-2.3l-1-1c4.5-4.8,6.7-9.4,6.7-13.8
			c0-3.2-1.4-4.8-4.2-4.8c-5.7,0-10.8,4.3-15.3,12.9c-4.5,8.6-6.7,18.5-6.7,29.7c0,4.9,1.2,8.6,3.7,11.2c2.4,2.6,5.6,3.9,9.3,3.9
			c10.4,0,19.8-2.8,28.3-8.5c8.5-5.7,14.5-11.3,17.8-16.9C394.5,112,397.4,116.3,397.4,123.9z"/>
		<path fill="#EEEEEE" d="M502.8,125.6c0,7.8-5,15.9-14.9,24.1c-9.9,8.3-21.1,12.4-33.6,12.4c-7.6,0-13.4-1.8-17.5-5.4
			s-6.2-8.7-6.2-15.4c0-5.9,3.1-15.6,9.2-29.1c6.2-13.5,9.2-21.4,9.2-23.6c0-2.2-0.9-3.4-2.7-3.4c-6,0-12.3,4.2-18.8,12.5
			c-6.5,8.3-11.8,18-15.7,29.2c-4,11.1-6.2,21.2-6.6,30.1c-2.4,1.4-5.4,2.1-9,2.1c-4.2,0-7.7-1.5-10.6-4.4
			c-2.9-2.9-4.3-7.4-4.3-13.4c0-5,0.7-11.7,2-19.9c1.3-8.3,3.3-17.5,5.8-27.7s5.9-20.4,10.1-30.6c4.2-10.2,8.8-19.6,13.8-28.2
			c5-8.6,11.1-15.6,18.1-20.9c7.1-5.3,14.5-8,22.3-8c7.6,0,13.4,1.9,17.6,5.7c4.2,3.8,6.3,9.1,6.3,15.9c0,12-3.8,22.5-11.3,31.5
			c9.4,2.5,14.1,9,14.1,19.3c0,5.9-1.4,12.3-4.3,19.4c-2.9,7.1-5.8,13.5-8.7,19.2c-2.9,5.7-4.4,9.9-4.4,12.6c0,3.2,1.7,4.8,5,4.8
			c4.6,0,9.3-2.3,14.2-7c4.8-4.7,8.6-10,11.4-16.1C499.6,111.9,502.8,116.7,502.8,125.6z M423.6,73.3c1.9-1.6,3.3-2.9,4.3-3.8
			c1-0.9,2.5-2.3,4.5-4.3c2-2,3.7-3.6,4.9-5c1.3-1.4,2.7-3.2,4.3-5.3c1.6-2.2,2.9-4.1,3.8-5.9c0.9-1.7,1.7-3.6,2.3-5.7
			c0.6-2,0.9-4,0.9-6c0-2-0.6-2.9-1.9-2.9c-3.4,0-8.1,5.4-14.3,16.3c-6.2,10.8-10.2,19.3-12.2,25.5
			C420.6,75.8,421.7,74.9,423.6,73.3z"/>
		<path fill="#EEEEEE" d="M556.1,125.6c0,7.8-4.8,15.9-14.4,24.1c-9.6,8.3-20.5,12.4-32.8,12.4c-7.4,0-13.1-1.7-17.1-5.1
			s-6-8.3-6-14.6c0-6.6,1.5-14.5,4.4-23.7c2.9-9.2,5.9-19.1,8.8-29.5c2.9-10.4,4.4-20.4,4.4-29.9c4.5-1.5,8.5-2.3,12-2.3
			c5.2,0,9.5,1.4,12.9,4.3c3.4,2.9,5.1,7.3,5.1,13.3c0,7.6-2.6,18-7.9,31.4c-5.2,13.4-7.9,21.4-7.9,24c0,2.9,1.5,4.4,4.4,4.4
			c4.5,0,8.9-2.3,13.3-7c4.4-4.7,8.1-10,11-16.1C552.8,111.9,556.1,116.7,556.1,125.6z M542.6,33.1c-3.4,3.6-8,5.5-13.9,5.5
			c-4.8,0-8.6-1.4-11.6-4.2c-3-2.8-4.5-6.4-4.5-10.9c0-6.2,1.9-10.9,5.6-14.4c3.7-3.4,8.1-5.1,13.3-5.1c4.9,0,8.8,1.5,11.8,4.4
			c2.9,2.9,4.4,6.8,4.4,11.5C547.7,25,546,29.5,542.6,33.1z"/>
	</g>
	<g>
		<path fill="#EEEEEE" d="M99.4,123.9c0,8.3-6.4,16.6-19.1,25.1c-12.7,8.5-26.6,12.7-41.8,12.7c-12.3,0-21.5-3.6-27.5-10.8
			c-6-7.2-9-16.7-9-28.4c0-10.5,2.3-20.9,7-31.2C13.7,81,20.5,72.5,29.4,65.6c8.9-6.9,18.6-10.3,29.1-10.3c18,0,27.1,7.7,27.1,23.1
			c0,6.9-2.1,12.5-6.4,16.9c-4.3,4.4-10,6.6-17.1,6.6c-2.2,0-4.3-0.3-6.2-1s-3.2-1.5-3.9-2.3l-1-1c4.5-4.8,6.7-9.4,6.7-13.8
			c0-3.2-1.4-4.8-4.2-4.8c-5.7,0-10.8,4.3-15.3,12.9s-6.7,18.5-6.7,29.7c0,4.9,1.2,8.6,3.7,11.2c2.4,2.6,5.6,3.9,9.3,3.9
			c10.4,0,19.8-2.8,28.3-8.5c8.5-5.7,14.5-11.3,17.8-16.9C96.4,112,99.4,116.3,99.4,123.9z"/>
		<path fill="#EEEEEE" d="M204.7,125.6c0,7.8-5,15.9-14.9,24.1c-9.9,8.3-21.1,12.4-33.6,12.4c-7.6,0-13.4-1.8-17.5-5.4
			s-6.2-8.7-6.2-15.4c0-5.9,3.1-15.6,9.2-29.1c6.2-13.5,9.2-21.4,9.2-23.6c0-2.2-0.9-3.4-2.7-3.4c-6,0-12.3,4.2-18.8,12.5
			c-6.5,8.3-11.8,18-15.7,29.2c-4,11.1-6.2,21.2-6.6,30.1c-2.4,1.4-5.4,2.1-9,2.1c-4.2,0-7.7-1.5-10.6-4.4
			c-2.9-2.9-4.3-7.4-4.3-13.4c0-5,0.7-11.7,2-19.9s3.3-17.5,5.8-27.7c2.5-10.2,5.9-20.4,10.1-30.6c4.2-10.2,8.8-19.6,13.8-28.2
			c5-8.6,11.1-15.6,18.2-20.9c7.1-5.3,14.5-8,22.3-8c7.6,0,13.4,1.9,17.6,5.7c4.2,3.8,6.3,9.1,6.3,15.9c0,12-3.8,22.5-11.3,31.5
			c9.4,2.5,14.1,9,14.1,19.3c0,5.9-1.4,12.3-4.3,19.4c-2.9,7.1-5.8,13.5-8.7,19.2c-2.9,5.7-4.4,9.9-4.4,12.6c0,3.2,1.7,4.8,5,4.8
			c4.6,0,9.3-2.3,14.2-7c4.8-4.7,8.6-10,11.4-16.1C201.5,111.9,204.7,116.7,204.7,125.6z M125.5,73.3c1.9-1.6,3.3-2.9,4.3-3.8
			c1-0.9,2.5-2.3,4.5-4.3c2-2,3.7-3.6,4.9-5c1.3-1.4,2.7-3.2,4.3-5.3c1.6-2.2,2.9-4.1,3.8-5.9c0.9-1.7,1.7-3.6,2.3-5.7
			c0.6-2,0.9-4,0.9-6c0-2-0.6-2.9-1.9-2.9c-3.4,0-8.1,5.4-14.3,16.3c-6.2,10.8-10.2,19.3-12.2,25.5
			C122.5,75.8,123.6,74.9,125.5,73.3z"/>
		<path fill="#EEEEEE" d="M315.9,125.6c0,8-4.8,16.1-14.3,24.2c-9.5,8.2-20.4,12.3-32.7,12.3c-3.5,0-6.6-0.4-9.4-1.3
			c-2.8-0.8-4.9-1.9-6.4-3c-1.5-1.2-2.7-2.4-3.6-3.7c-0.9-1.3-1.5-2.3-1.8-3.1l-0.4-1.3c-0.3,0.3-0.6,0.7-1,1.3
			c-0.4,0.6-1.5,1.5-3.1,2.9c-1.7,1.4-3.5,2.6-5.6,3.7c-2,1.1-4.8,2-8.3,2.8c-3.5,0.8-7.2,1.3-11.1,1.3c-10.1,0-17.6-3.2-22.7-9.7
			c-5-6.4-7.6-14.8-7.6-25.2c0-20,7.2-37.2,21.7-51.6c14.5-14.4,31.9-21.6,52.4-21.6c21.7,0,32.5,7.2,32.5,21.6c0,1-0.2,2.1-0.5,3.3
			c-0.4,1.2-0.7,2.1-0.9,2.8l-0.6,1.1c-6-4.1-16.4-6.1-31.3-6.1c-12,0-22.4,5-31.2,15c-8.7,10-13.1,21.9-13.1,35.6
			c0,7,2.7,10.5,8.2,10.5c3.6,0,7-1.2,10-3.5c3-2.3,5.6-5.6,7.8-10c2.2-4.3,4-8.5,5.4-12.5c1.4-4,2.9-8.8,4.4-14.4
			c2.9-10.4,9.4-15.5,19.5-15.5c2.2,0,4.3,0.2,6.2,0.5c1.9,0.3,3.2,0.7,3.9,0.9l1.3,0.4c-1.4,4.5-2.9,9.3-4.4,14.4
			c-1.5,5.1-2.7,8.7-3.4,10.9c-0.7,2.2-1.4,4.4-2,6.8c-0.6,2.4-1,4.2-1.3,5.5c-0.2,1.3-0.3,2.5-0.3,3.8c0,6.4,3.1,9.7,9.2,9.7
			c4.8,0,9.6-2.4,14.5-7.2c4.9-4.8,8.5-10.1,10.7-15.8C312.7,111.9,315.9,116.7,315.9,125.6z"/>
		<path fill="#EEEEEE" d="M396.4,123.9c0,8.3-6.4,16.6-19.1,25.1c-12.7,8.5-26.6,12.7-41.8,12.7c-12.3,0-21.5-3.6-27.5-10.8
			c-6-7.2-9-16.7-9-28.4c0-10.5,2.3-20.9,7-31.2c4.7-10.3,11.5-18.8,20.4-25.7c8.9-6.9,18.6-10.3,29.1-10.3c18,0,27.1,7.7,27.1,23.1
			c0,6.9-2.1,12.5-6.4,16.9c-4.3,4.4-10,6.6-17.1,6.6c-2.2,0-4.3-0.3-6.2-1c-1.9-0.7-3.2-1.5-3.9-2.3l-1-1c4.5-4.8,6.7-9.4,6.7-13.8
			c0-3.2-1.4-4.8-4.2-4.8c-5.7,0-10.8,4.3-15.3,12.9c-4.5,8.6-6.7,18.5-6.7,29.7c0,4.9,1.2,8.6,3.7,11.2c2.4,2.6,5.6,3.9,9.3,3.9
			c10.4,0,19.8-2.8,28.3-8.5c8.5-5.7,14.5-11.3,17.8-16.9C393.5,112,396.4,116.3,396.4,123.9z"/>
		<path fill="#EEEEEE" d="M501.8,125.6c0,7.8-5,15.9-14.9,24.1c-9.9,8.3-21.1,12.4-33.6,12.4c-7.6,0-13.4-1.8-17.5-5.4
			s-6.2-8.7-6.2-15.4c0-5.9,3.1-15.6,9.2-29.1c6.2-13.5,9.2-21.4,9.2-23.6c0-2.2-0.9-3.4-2.7-3.4c-6,0-12.3,4.2-18.8,12.5
			c-6.5,8.3-11.8,18-15.7,29.2c-4,11.1-6.2,21.2-6.6,30.1c-2.4,1.4-5.4,2.1-9,2.1c-4.2,0-7.7-1.5-10.6-4.4
			c-2.9-2.9-4.3-7.4-4.3-13.4c0-5,0.7-11.7,2-19.9c1.3-8.3,3.3-17.5,5.8-27.7s5.9-20.4,10.1-30.6c4.2-10.2,8.8-19.6,13.8-28.2
			c5-8.6,11.1-15.6,18.1-20.9c7.1-5.3,14.5-8,22.3-8c7.6,0,13.4,1.9,17.6,5.7c4.2,3.8,6.3,9.1,6.3,15.9c0,12-3.8,22.5-11.3,31.5
			c9.4,2.5,14.1,9,14.1,19.3c0,5.9-1.4,12.3-4.3,19.4c-2.9,7.1-5.8,13.5-8.7,19.2c-2.9,5.7-4.4,9.9-4.4,12.6c0,3.2,1.7,4.8,5,4.8
			c4.6,0,9.3-2.3,14.2-7c4.8-4.7,8.6-10,11.4-16.1C498.6,111.9,501.8,116.7,501.8,125.6z M422.6,73.3c1.9-1.6,3.3-2.9,4.3-3.8
			c1-0.9,2.5-2.3,4.5-4.3c2-2,3.7-3.6,4.9-5c1.3-1.4,2.7-3.2,4.3-5.3c1.6-2.2,2.9-4.1,3.8-5.9c0.9-1.7,1.7-3.6,2.3-5.7
			c0.6-2,0.9-4,0.9-6c0-2-0.6-2.9-1.9-2.9c-3.4,0-8.1,5.4-14.3,16.3c-6.2,10.8-10.2,19.3-12.2,25.5
			C419.6,75.8,420.7,74.9,422.6,73.3z"/>
		<path fill="#EEEEEE" d="M555.1,125.6c0,7.8-4.8,15.9-14.4,24.1c-9.6,8.3-20.5,12.4-32.8,12.4c-7.4,0-13.1-1.7-17.1-5.1
			s-6-8.3-6-14.6c0-6.6,1.5-14.5,4.4-23.7c2.9-9.2,5.9-19.1,8.8-29.5c2.9-10.4,4.4-20.4,4.4-29.9c4.5-1.5,8.5-2.3,12-2.3
			c5.2,0,9.5,1.4,12.9,4.3c3.4,2.9,5.1,7.3,5.1,13.3c0,7.6-2.6,18-7.9,31.4c-5.2,13.4-7.9,21.4-7.9,24c0,2.9,1.5,4.4,4.4,4.4
			c4.5,0,8.9-2.3,13.3-7c4.4-4.7,8.1-10,11-16.1C551.8,111.9,555.1,116.7,555.1,125.6z M541.6,33.1c-3.4,3.6-8,5.5-13.9,5.5
			c-4.8,0-8.6-1.4-11.6-4.2c-3-2.8-4.5-6.4-4.5-10.9c0-6.2,1.9-10.9,5.6-14.4c3.7-3.4,8.1-5.1,13.3-5.1c4.9,0,8.8,1.5,11.8,4.4
			c2.9,2.9,4.4,6.8,4.4,11.5C546.7,25,545,29.5,541.6,33.1z"/>
	</g>
	<g>
		<path fill="#EEEEEE" d="M99.4,122.9c0,8.3-6.4,16.6-19.1,25.1c-12.7,8.5-26.6,12.7-41.8,12.7c-12.3,0-21.5-3.6-27.5-10.8
			c-6-7.2-9-16.7-9-28.4c0-10.5,2.3-20.9,7-31.2C13.7,80,20.5,71.5,29.4,64.6c8.9-6.9,18.6-10.3,29.1-10.3c18,0,27.1,7.7,27.1,23.1
			c0,6.9-2.1,12.5-6.4,16.9c-4.3,4.4-10,6.6-17.1,6.6c-2.2,0-4.3-0.3-6.2-1s-3.2-1.5-3.9-2.3l-1-1c4.5-4.8,6.7-9.4,6.7-13.8
			c0-3.2-1.4-4.8-4.2-4.8c-5.7,0-10.8,4.3-15.3,12.9s-6.7,18.5-6.7,29.7c0,4.9,1.2,8.6,3.7,11.2c2.4,2.6,5.6,3.9,9.3,3.9
			c10.4,0,19.8-2.8,28.3-8.5c8.5-5.7,14.5-11.3,17.8-16.9C96.4,111,99.4,115.3,99.4,122.9z"/>
		<path fill="#EEEEEE" d="M204.7,124.6c0,7.8-5,15.9-14.9,24.1c-9.9,8.3-21.1,12.4-33.6,12.4c-7.6,0-13.4-1.8-17.5-5.4
			s-6.2-8.7-6.2-15.4c0-5.9,3.1-15.6,9.2-29.1c6.2-13.5,9.2-21.4,9.2-23.6c0-2.2-0.9-3.4-2.7-3.4c-6,0-12.3,4.2-18.8,12.5
			c-6.5,8.3-11.8,18-15.7,29.2c-4,11.1-6.2,21.2-6.6,30.1c-2.4,1.4-5.4,2.1-9,2.1c-4.2,0-7.7-1.5-10.6-4.4
			c-2.9-2.9-4.3-7.4-4.3-13.4c0-5,0.7-11.7,2-19.9s3.3-17.5,5.8-27.7c2.5-10.2,5.9-20.4,10.1-30.6c4.2-10.2,8.8-19.6,13.8-28.2
			c5-8.6,11.1-15.6,18.2-20.9c7.1-5.3,14.5-8,22.3-8c7.6,0,13.4,1.9,17.6,5.7c4.2,3.8,6.3,9.1,6.3,15.9c0,12-3.8,22.5-11.3,31.5
			c9.4,2.5,14.1,9,14.1,19.3c0,5.9-1.4,12.3-4.3,19.4c-2.9,7.1-5.8,13.5-8.7,19.2c-2.9,5.7-4.4,9.9-4.4,12.6c0,3.2,1.7,4.8,5,4.8
			c4.6,0,9.3-2.3,14.2-7c4.8-4.7,8.6-10,11.4-16.1C201.5,110.9,204.7,115.7,204.7,124.6z M125.5,72.3c1.9-1.6,3.3-2.9,4.3-3.8
			c1-0.9,2.5-2.3,4.5-4.3c2-2,3.7-3.6,4.9-5c1.3-1.4,2.7-3.2,4.3-5.3c1.6-2.2,2.9-4.1,3.8-5.9c0.9-1.7,1.7-3.6,2.3-5.7
			c0.6-2,0.9-4,0.9-6c0-2-0.6-2.9-1.9-2.9c-3.4,0-8.1,5.4-14.3,16.3c-6.2,10.8-10.2,19.3-12.2,25.5
			C122.5,74.8,123.6,73.9,125.5,72.3z"/>
		<path fill="#EEEEEE" d="M315.9,124.6c0,8-4.8,16.1-14.3,24.2c-9.5,8.2-20.4,12.3-32.7,12.3c-3.5,0-6.6-0.4-9.4-1.3
			c-2.8-0.8-4.9-1.9-6.4-3c-1.5-1.2-2.7-2.4-3.6-3.7c-0.9-1.3-1.5-2.3-1.8-3.1l-0.4-1.3c-0.3,0.3-0.6,0.7-1,1.3
			c-0.4,0.6-1.5,1.5-3.1,2.9c-1.7,1.4-3.5,2.6-5.6,3.7c-2,1.1-4.8,2-8.3,2.8c-3.5,0.8-7.2,1.3-11.1,1.3c-10.1,0-17.6-3.2-22.7-9.7
			c-5-6.4-7.6-14.8-7.6-25.2c0-20,7.2-37.2,21.7-51.6c14.5-14.4,31.9-21.6,52.4-21.6c21.7,0,32.5,7.2,32.5,21.6c0,1-0.2,2.1-0.5,3.3
			c-0.4,1.2-0.7,2.1-0.9,2.8l-0.6,1.1c-6-4.1-16.4-6.1-31.3-6.1c-12,0-22.4,5-31.2,15c-8.7,10-13.1,21.9-13.1,35.6
			c0,7,2.7,10.5,8.2,10.5c3.6,0,7-1.2,10-3.5c3-2.3,5.6-5.6,7.8-10c2.2-4.3,4-8.5,5.4-12.5c1.4-4,2.9-8.8,4.4-14.4
			c2.9-10.4,9.4-15.5,19.5-15.5c2.2,0,4.3,0.2,6.2,0.5c1.9,0.3,3.2,0.7,3.9,0.9l1.3,0.4c-1.4,4.5-2.9,9.3-4.4,14.4
			c-1.5,5.1-2.7,8.7-3.4,10.9c-0.7,2.2-1.4,4.4-2,6.8c-0.6,2.4-1,4.2-1.3,5.5c-0.2,1.3-0.3,2.5-0.3,3.8c0,6.4,3.1,9.7,9.2,9.7
			c4.8,0,9.6-2.4,14.5-7.2c4.9-4.8,8.5-10.1,10.7-15.8C312.7,110.9,315.9,115.7,315.9,124.6z"/>
		<path fill="#EEEEEE" d="M396.4,122.9c0,8.3-6.4,16.6-19.1,25.1c-12.7,8.5-26.6,12.7-41.8,12.7c-12.3,0-21.5-3.6-27.5-10.8
			c-6-7.2-9-16.7-9-28.4c0-10.5,2.3-20.9,7-31.2c4.7-10.3,11.5-18.8,20.4-25.7c8.9-6.9,18.6-10.3,29.1-10.3c18,0,27.1,7.7,27.1,23.1
			c0,6.9-2.1,12.5-6.4,16.9c-4.3,4.4-10,6.6-17.1,6.6c-2.2,0-4.3-0.3-6.2-1c-1.9-0.7-3.2-1.5-3.9-2.3l-1-1c4.5-4.8,6.7-9.4,6.7-13.8
			c0-3.2-1.4-4.8-4.2-4.8c-5.7,0-10.8,4.3-15.3,12.9c-4.5,8.6-6.7,18.5-6.7,29.7c0,4.9,1.2,8.6,3.7,11.2c2.4,2.6,5.6,3.9,9.3,3.9
			c10.4,0,19.8-2.8,28.3-8.5c8.5-5.7,14.5-11.3,17.8-16.9C393.5,111,396.4,115.3,396.4,122.9z"/>
		<path fill="#EEEEEE" d="M501.8,124.6c0,7.8-5,15.9-14.9,24.1c-9.9,8.3-21.1,12.4-33.6,12.4c-7.6,0-13.4-1.8-17.5-5.4
			s-6.2-8.7-6.2-15.4c0-5.9,3.1-15.6,9.2-29.1c6.2-13.5,9.2-21.4,9.2-23.6c0-2.2-0.9-3.4-2.7-3.4c-6,0-12.3,4.2-18.8,12.5
			c-6.5,8.3-11.8,18-15.7,29.2c-4,11.1-6.2,21.2-6.6,30.1c-2.4,1.4-5.4,2.1-9,2.1c-4.2,0-7.7-1.5-10.6-4.4
			c-2.9-2.9-4.3-7.4-4.3-13.4c0-5,0.7-11.7,2-19.9c1.3-8.3,3.3-17.5,5.8-27.7s5.9-20.4,10.1-30.6c4.2-10.2,8.8-19.6,13.8-28.2
			c5-8.6,11.1-15.6,18.1-20.9c7.1-5.3,14.5-8,22.3-8c7.6,0,13.4,1.9,17.6,5.7c4.2,3.8,6.3,9.1,6.3,15.9c0,12-3.8,22.5-11.3,31.5
			c9.4,2.5,14.1,9,14.1,19.3c0,5.9-1.4,12.3-4.3,19.4c-2.9,7.1-5.8,13.5-8.7,19.2c-2.9,5.7-4.4,9.9-4.4,12.6c0,3.2,1.7,4.8,5,4.8
			c4.6,0,9.3-2.3,14.2-7c4.8-4.7,8.6-10,11.4-16.1C498.6,110.9,501.8,115.7,501.8,124.6z M422.6,72.3c1.9-1.6,3.3-2.9,4.3-3.8
			c1-0.9,2.5-2.3,4.5-4.3c2-2,3.7-3.6,4.9-5c1.3-1.4,2.7-3.2,4.3-5.3c1.6-2.2,2.9-4.1,3.8-5.9c0.9-1.7,1.7-3.6,2.3-5.7
			c0.6-2,0.9-4,0.9-6c0-2-0.6-2.9-1.9-2.9c-3.4,0-8.1,5.4-14.3,16.3c-6.2,10.8-10.2,19.3-12.2,25.5
			C419.6,74.8,420.7,73.9,422.6,72.3z"/>
		<path fill="#EEEEEE" d="M555.1,124.6c0,7.8-4.8,15.9-14.4,24.1c-9.6,8.3-20.5,12.4-32.8,12.4c-7.4,0-13.1-1.7-17.1-5.1
			s-6-8.3-6-14.6c0-6.6,1.5-14.5,4.4-23.7c2.9-9.2,5.9-19.1,8.8-29.5c2.9-10.4,4.4-20.4,4.4-29.9c4.5-1.5,8.5-2.3,12-2.3
			c5.2,0,9.5,1.4,12.9,4.3c3.4,2.9,5.1,7.3,5.1,13.3c0,7.6-2.6,18-7.9,31.4c-5.2,13.4-7.9,21.4-7.9,24c0,2.9,1.5,4.4,4.4,4.4
			c4.5,0,8.9-2.3,13.3-7c4.4-4.7,8.1-10,11-16.1C551.8,110.9,555.1,115.7,555.1,124.6z M541.6,32.1c-3.4,3.6-8,5.5-13.9,5.5
			c-4.8,0-8.6-1.4-11.6-4.2c-3-2.8-4.5-6.4-4.5-10.9c0-6.2,1.9-10.9,5.6-14.4c3.7-3.4,8.1-5.1,13.3-5.1c4.9,0,8.8,1.5,11.8,4.4
			c2.9,2.9,4.4,6.8,4.4,11.5C546.7,24,545,28.5,541.6,32.1z"/>
	</g>
	<g>
		<path fill="#EEEEEE" d="M98.4,122.9c0,8.3-6.4,16.6-19.1,25.1c-12.7,8.5-26.6,12.7-41.8,12.7c-12.3,0-21.5-3.6-27.5-10.8
			c-6-7.2-9-16.7-9-28.4c0-10.5,2.3-20.9,7-31.2C12.7,80,19.5,71.5,28.4,64.6c8.9-6.9,18.6-10.3,29.1-10.3c18,0,27.1,7.7,27.1,23.1
			c0,6.9-2.1,12.5-6.4,16.9c-4.3,4.4-10,6.6-17.1,6.6c-2.2,0-4.3-0.3-6.2-1s-3.2-1.5-3.9-2.3l-1-1c4.5-4.8,6.7-9.4,6.7-13.8
			c0-3.2-1.4-4.8-4.2-4.8c-5.7,0-10.8,4.3-15.3,12.9s-6.7,18.5-6.7,29.7c0,4.9,1.2,8.6,3.7,11.2c2.4,2.6,5.6,3.9,9.3,3.9
			c10.4,0,19.8-2.8,28.3-8.5c8.5-5.7,14.5-11.3,17.8-16.9C95.4,111,98.4,115.3,98.4,122.9z"/>
		<path fill="#EEEEEE" d="M203.7,124.6c0,7.8-5,15.9-14.9,24.1c-9.9,8.3-21.1,12.4-33.6,12.4c-7.6,0-13.4-1.8-17.5-5.4
			s-6.2-8.7-6.2-15.4c0-5.9,3.1-15.6,9.2-29.1c6.2-13.5,9.2-21.4,9.2-23.6c0-2.2-0.9-3.4-2.7-3.4c-6,0-12.3,4.2-18.8,12.5
			c-6.5,8.3-11.8,18-15.7,29.2c-4,11.1-6.2,21.2-6.6,30.1c-2.4,1.4-5.4,2.1-9,2.1c-4.2,0-7.7-1.5-10.6-4.4
			c-2.9-2.9-4.3-7.4-4.3-13.4c0-5,0.7-11.7,2-19.9s3.3-17.5,5.8-27.7c2.5-10.2,5.9-20.4,10.1-30.6c4.2-10.2,8.8-19.6,13.8-28.2
			c5-8.6,11.1-15.6,18.2-20.9c7.1-5.3,14.5-8,22.3-8c7.6,0,13.4,1.9,17.6,5.7c4.2,3.8,6.3,9.1,6.3,15.9c0,12-3.8,22.5-11.3,31.5
			c9.4,2.5,14.1,9,14.1,19.3c0,5.9-1.4,12.3-4.3,19.4c-2.9,7.1-5.8,13.5-8.7,19.2c-2.9,5.7-4.4,9.9-4.4,12.6c0,3.2,1.7,4.8,5,4.8
			c4.6,0,9.3-2.3,14.2-7c4.8-4.7,8.6-10,11.4-16.1C200.5,110.9,203.7,115.7,203.7,124.6z M124.5,72.3c1.9-1.6,3.3-2.9,4.3-3.8
			c1-0.9,2.5-2.3,4.5-4.3c2-2,3.7-3.6,4.9-5c1.3-1.4,2.7-3.2,4.3-5.3c1.6-2.2,2.9-4.1,3.8-5.9c0.9-1.7,1.7-3.6,2.3-5.7
			c0.6-2,0.9-4,0.9-6c0-2-0.6-2.9-1.9-2.9c-3.4,0-8.1,5.4-14.3,16.3c-6.2,10.8-10.2,19.3-12.2,25.5
			C121.5,74.8,122.6,73.9,124.5,72.3z"/>
		<path fill="#EEEEEE" d="M314.9,124.6c0,8-4.8,16.1-14.3,24.2c-9.5,8.2-20.4,12.3-32.7,12.3c-3.5,0-6.6-0.4-9.4-1.3
			c-2.8-0.8-4.9-1.9-6.4-3c-1.5-1.2-2.7-2.4-3.6-3.7c-0.9-1.3-1.5-2.3-1.8-3.1l-0.4-1.3c-0.3,0.3-0.6,0.7-1,1.3
			c-0.4,0.6-1.5,1.5-3.1,2.9c-1.7,1.4-3.5,2.6-5.6,3.7c-2,1.1-4.8,2-8.3,2.8c-3.5,0.8-7.2,1.3-11.1,1.3c-10.1,0-17.6-3.2-22.7-9.7
			c-5-6.4-7.6-14.8-7.6-25.2c0-20,7.2-37.2,21.7-51.6c14.5-14.4,31.9-21.6,52.4-21.6c21.7,0,32.5,7.2,32.5,21.6c0,1-0.2,2.1-0.5,3.3
			c-0.4,1.2-0.7,2.1-0.9,2.8l-0.6,1.1c-6-4.1-16.4-6.1-31.3-6.1c-12,0-22.4,5-31.2,15c-8.7,10-13.1,21.9-13.1,35.6
			c0,7,2.7,10.5,8.2,10.5c3.6,0,7-1.2,10-3.5c3-2.3,5.6-5.6,7.8-10c2.2-4.3,4-8.5,5.4-12.5c1.4-4,2.9-8.8,4.4-14.4
			c2.9-10.4,9.4-15.5,19.5-15.5c2.2,0,4.3,0.2,6.2,0.5c1.9,0.3,3.2,0.7,3.9,0.9l1.3,0.4c-1.4,4.5-2.9,9.3-4.4,14.4
			c-1.5,5.1-2.7,8.7-3.4,10.9c-0.7,2.2-1.4,4.4-2,6.8c-0.6,2.4-1,4.2-1.3,5.5c-0.2,1.3-0.3,2.5-0.3,3.8c0,6.4,3.1,9.7,9.2,9.7
			c4.8,0,9.6-2.4,14.5-7.2c4.9-4.8,8.5-10.1,10.7-15.8C311.7,110.9,314.9,115.7,314.9,124.6z"/>
		<path fill="#EEEEEE" d="M395.4,122.9c0,8.3-6.4,16.6-19.1,25.1c-12.7,8.5-26.6,12.7-41.8,12.7c-12.3,0-21.5-3.6-27.5-10.8
			c-6-7.2-9-16.7-9-28.4c0-10.5,2.3-20.9,7-31.2c4.7-10.3,11.5-18.8,20.4-25.7c8.9-6.9,18.6-10.3,29.1-10.3c18,0,27.1,7.7,27.1,23.1
			c0,6.9-2.1,12.5-6.4,16.9c-4.3,4.4-10,6.6-17.1,6.6c-2.2,0-4.3-0.3-6.2-1c-1.9-0.7-3.2-1.5-3.9-2.3l-1-1c4.5-4.8,6.7-9.4,6.7-13.8
			c0-3.2-1.4-4.8-4.2-4.8c-5.7,0-10.8,4.3-15.3,12.9c-4.5,8.6-6.7,18.5-6.7,29.7c0,4.9,1.2,8.6,3.7,11.2c2.4,2.6,5.6,3.9,9.3,3.9
			c10.4,0,19.8-2.8,28.3-8.5c8.5-5.7,14.5-11.3,17.8-16.9C392.5,111,395.4,115.3,395.4,122.9z"/>
		<path fill="#EEEEEE" d="M500.8,124.6c0,7.8-5,15.9-14.9,24.1c-9.9,8.3-21.1,12.4-33.6,12.4c-7.6,0-13.4-1.8-17.5-5.4
			s-6.2-8.7-6.2-15.4c0-5.9,3.1-15.6,9.2-29.1c6.2-13.5,9.2-21.4,9.2-23.6c0-2.2-0.9-3.4-2.7-3.4c-6,0-12.3,4.2-18.8,12.5
			c-6.5,8.3-11.8,18-15.7,29.2c-4,11.1-6.2,21.2-6.6,30.1c-2.4,1.4-5.4,2.1-9,2.1c-4.2,0-7.7-1.5-10.6-4.4
			c-2.9-2.9-4.3-7.4-4.3-13.4c0-5,0.7-11.7,2-19.9c1.3-8.3,3.3-17.5,5.8-27.7s5.9-20.4,10.1-30.6c4.2-10.2,8.8-19.6,13.8-28.2
			c5-8.6,11.1-15.6,18.1-20.9c7.1-5.3,14.5-8,22.3-8c7.6,0,13.4,1.9,17.6,5.7c4.2,3.8,6.3,9.1,6.3,15.9c0,12-3.8,22.5-11.3,31.5
			c9.4,2.5,14.1,9,14.1,19.3c0,5.9-1.4,12.3-4.3,19.4c-2.9,7.1-5.8,13.5-8.7,19.2c-2.9,5.7-4.4,9.9-4.4,12.6c0,3.2,1.7,4.8,5,4.8
			c4.6,0,9.3-2.3,14.2-7c4.8-4.7,8.6-10,11.4-16.1C497.6,110.9,500.8,115.7,500.8,124.6z M421.6,72.3c1.9-1.6,3.3-2.9,4.3-3.8
			c1-0.9,2.5-2.3,4.5-4.3c2-2,3.7-3.6,4.9-5c1.3-1.4,2.7-3.2,4.3-5.3c1.6-2.2,2.9-4.1,3.8-5.9c0.9-1.7,1.7-3.6,2.3-5.7
			c0.6-2,0.9-4,0.9-6c0-2-0.6-2.9-1.9-2.9c-3.4,0-8.1,5.4-14.3,16.3c-6.2,10.8-10.2,19.3-12.2,25.5
			C418.6,74.8,419.7,73.9,421.6,72.3z"/>
		<path fill="#EEEEEE" d="M554.1,124.6c0,7.8-4.8,15.9-14.4,24.1c-9.6,8.3-20.5,12.4-32.8,12.4c-7.4,0-13.1-1.7-17.1-5.1
			s-6-8.3-6-14.6c0-6.6,1.5-14.5,4.4-23.7c2.9-9.2,5.9-19.1,8.8-29.5c2.9-10.4,4.4-20.4,4.4-29.9c4.5-1.5,8.5-2.3,12-2.3
			c5.2,0,9.5,1.4,12.9,4.3c3.4,2.9,5.1,7.3,5.1,13.3c0,7.6-2.6,18-7.9,31.4c-5.2,13.4-7.9,21.4-7.9,24c0,2.9,1.5,4.4,4.4,4.4
			c4.5,0,8.9-2.3,13.3-7c4.4-4.7,8.1-10,11-16.1C550.8,110.9,554.1,115.7,554.1,124.6z M540.6,32.1c-3.4,3.6-8,5.5-13.9,5.5
			c-4.8,0-8.6-1.4-11.6-4.2c-3-2.8-4.5-6.4-4.5-10.9c0-6.2,1.9-10.9,5.6-14.4c3.7-3.4,8.1-5.1,13.3-5.1c4.9,0,8.8,1.5,11.8,4.4
			c2.9,2.9,4.4,6.8,4.4,11.5C545.7,24,544,28.5,540.6,32.1z"/>
	</g>
	<g>
		<path fill="#EEEEEE" d="M98.4,121.9c0,8.3-6.4,16.6-19.1,25.1c-12.7,8.5-26.6,12.7-41.8,12.7c-12.3,0-21.5-3.6-27.5-10.8
			c-6-7.2-9-16.7-9-28.4C1,110,3.3,99.6,8,89.3C12.7,79,19.5,70.5,28.4,63.6c8.9-6.9,18.6-10.3,29.1-10.3c18,0,27.1,7.7,27.1,23.1
			c0,6.9-2.1,12.5-6.4,16.9c-4.3,4.4-10,6.6-17.1,6.6c-2.2,0-4.3-0.3-6.2-1s-3.2-1.5-3.9-2.3l-1-1c4.5-4.8,6.7-9.4,6.7-13.8
			c0-3.2-1.4-4.8-4.2-4.8c-5.7,0-10.8,4.3-15.3,12.9s-6.7,18.5-6.7,29.7c0,4.9,1.2,8.6,3.7,11.2c2.4,2.6,5.6,3.9,9.3,3.9
			c10.4,0,19.8-2.8,28.3-8.5c8.5-5.7,14.5-11.3,17.8-16.9C95.4,110,98.4,114.3,98.4,121.9z"/>
		<path fill="#EEEEEE" d="M203.7,123.6c0,7.8-5,15.9-14.9,24.1c-9.9,8.3-21.1,12.4-33.6,12.4c-7.6,0-13.4-1.8-17.5-5.4
			s-6.2-8.7-6.2-15.4c0-5.9,3.1-15.6,9.2-29.1c6.2-13.5,9.2-21.4,9.2-23.6c0-2.2-0.9-3.4-2.7-3.4c-6,0-12.3,4.2-18.8,12.5
			c-6.5,8.3-11.8,18-15.7,29.2c-4,11.1-6.2,21.2-6.6,30.1c-2.4,1.4-5.4,2.1-9,2.1c-4.2,0-7.7-1.5-10.6-4.4
			c-2.9-2.9-4.3-7.4-4.3-13.4c0-5,0.7-11.7,2-19.9s3.3-17.5,5.8-27.7c2.5-10.2,5.9-20.4,10.1-30.6c4.2-10.2,8.8-19.6,13.8-28.2
			c5-8.6,11.1-15.6,18.2-20.9c7.1-5.3,14.5-8,22.3-8c7.6,0,13.4,1.9,17.6,5.7c4.2,3.8,6.3,9.1,6.3,15.9c0,12-3.8,22.5-11.3,31.5
			c9.4,2.5,14.1,9,14.1,19.3c0,5.9-1.4,12.3-4.3,19.4c-2.9,7.1-5.8,13.5-8.7,19.2c-2.9,5.7-4.4,9.9-4.4,12.6c0,3.2,1.7,4.8,5,4.8
			c4.6,0,9.3-2.3,14.2-7c4.8-4.7,8.6-10,11.4-16.1C200.5,109.9,203.7,114.7,203.7,123.6z M124.5,71.3c1.9-1.6,3.3-2.9,4.3-3.8
			c1-0.9,2.5-2.3,4.5-4.3c2-2,3.7-3.6,4.9-5c1.3-1.4,2.7-3.2,4.3-5.3c1.6-2.2,2.9-4.1,3.8-5.9c0.9-1.7,1.7-3.6,2.3-5.7
			c0.6-2,0.9-4,0.9-6c0-2-0.6-2.9-1.9-2.9c-3.4,0-8.1,5.4-14.3,16.3c-6.2,10.8-10.2,19.3-12.2,25.5
			C121.5,73.8,122.6,72.9,124.5,71.3z"/>
		<path fill="#EEEEEE" d="M314.9,123.6c0,8-4.8,16.1-14.3,24.2c-9.5,8.2-20.4,12.3-32.7,12.3c-3.5,0-6.6-0.4-9.4-1.3
			c-2.8-0.8-4.9-1.9-6.4-3c-1.5-1.2-2.7-2.4-3.6-3.7c-0.9-1.3-1.5-2.3-1.8-3.1l-0.4-1.3c-0.3,0.3-0.6,0.7-1,1.3
			c-0.4,0.6-1.5,1.5-3.1,2.9c-1.7,1.4-3.5,2.6-5.6,3.7c-2,1.1-4.8,2-8.3,2.8c-3.5,0.8-7.2,1.3-11.1,1.3c-10.1,0-17.6-3.2-22.7-9.7
			c-5-6.4-7.6-14.8-7.6-25.2c0-20,7.2-37.2,21.7-51.6c14.5-14.4,31.9-21.6,52.4-21.6c21.7,0,32.5,7.2,32.5,21.6c0,1-0.2,2.1-0.5,3.3
			c-0.4,1.2-0.7,2.1-0.9,2.8l-0.6,1.1c-6-4.1-16.4-6.1-31.3-6.1c-12,0-22.4,5-31.2,15c-8.7,10-13.1,21.9-13.1,35.6
			c0,7,2.7,10.5,8.2,10.5c3.6,0,7-1.2,10-3.5c3-2.3,5.6-5.6,7.8-10c2.2-4.3,4-8.5,5.4-12.5c1.4-4,2.9-8.8,4.4-14.4
			c2.9-10.4,9.4-15.5,19.5-15.5c2.2,0,4.3,0.2,6.2,0.5c1.9,0.3,3.2,0.7,3.9,0.9l1.3,0.4c-1.4,4.5-2.9,9.3-4.4,14.4
			c-1.5,5.1-2.7,8.7-3.4,10.9c-0.7,2.2-1.4,4.4-2,6.8c-0.6,2.4-1,4.2-1.3,5.5c-0.2,1.3-0.3,2.5-0.3,3.8c0,6.4,3.1,9.7,9.2,9.7
			c4.8,0,9.6-2.4,14.5-7.2c4.9-4.8,8.5-10.1,10.7-15.8C311.7,109.9,314.9,114.7,314.9,123.6z"/>
		<path fill="#EEEEEE" d="M395.4,121.9c0,8.3-6.4,16.6-19.1,25.1c-12.7,8.5-26.6,12.7-41.8,12.7c-12.3,0-21.5-3.6-27.5-10.8
			c-6-7.2-9-16.7-9-28.4c0-10.5,2.3-20.9,7-31.2c4.7-10.3,11.5-18.8,20.4-25.7c8.9-6.9,18.6-10.3,29.1-10.3c18,0,27.1,7.7,27.1,23.1
			c0,6.9-2.1,12.5-6.4,16.9c-4.3,4.4-10,6.6-17.1,6.6c-2.2,0-4.3-0.3-6.2-1c-1.9-0.7-3.2-1.5-3.9-2.3l-1-1c4.5-4.8,6.7-9.4,6.7-13.8
			c0-3.2-1.4-4.8-4.2-4.8c-5.7,0-10.8,4.3-15.3,12.9c-4.5,8.6-6.7,18.5-6.7,29.7c0,4.9,1.2,8.6,3.7,11.2c2.4,2.6,5.6,3.9,9.3,3.9
			c10.4,0,19.8-2.8,28.3-8.5c8.5-5.7,14.5-11.3,17.8-16.9C392.5,110,395.4,114.3,395.4,121.9z"/>
		<path fill="#EEEEEE" d="M500.8,123.6c0,7.8-5,15.9-14.9,24.1c-9.9,8.3-21.1,12.4-33.6,12.4c-7.6,0-13.4-1.8-17.5-5.4
			s-6.2-8.7-6.2-15.4c0-5.9,3.1-15.6,9.2-29.1c6.2-13.5,9.2-21.4,9.2-23.6c0-2.2-0.9-3.4-2.7-3.4c-6,0-12.3,4.2-18.8,12.5
			c-6.5,8.3-11.8,18-15.7,29.2c-4,11.1-6.2,21.2-6.6,30.1c-2.4,1.4-5.4,2.1-9,2.1c-4.2,0-7.7-1.5-10.6-4.4
			c-2.9-2.9-4.3-7.4-4.3-13.4c0-5,0.7-11.7,2-19.9c1.3-8.3,3.3-17.5,5.8-27.7s5.9-20.4,10.1-30.6c4.2-10.2,8.8-19.6,13.8-28.2
			c5-8.6,11.1-15.6,18.1-20.9c7.1-5.3,14.5-8,22.3-8c7.6,0,13.4,1.9,17.6,5.7c4.2,3.8,6.3,9.1,6.3,15.9c0,12-3.8,22.5-11.3,31.5
			c9.4,2.5,14.1,9,14.1,19.3c0,5.9-1.4,12.3-4.3,19.4c-2.9,7.1-5.8,13.5-8.7,19.2c-2.9,5.7-4.4,9.9-4.4,12.6c0,3.2,1.7,4.8,5,4.8
			c4.6,0,9.3-2.3,14.2-7c4.8-4.7,8.6-10,11.4-16.1C497.6,109.9,500.8,114.7,500.8,123.6z M421.6,71.3c1.9-1.6,3.3-2.9,4.3-3.8
			c1-0.9,2.5-2.3,4.5-4.3c2-2,3.7-3.6,4.9-5c1.3-1.4,2.7-3.2,4.3-5.3c1.6-2.2,2.9-4.1,3.8-5.9c0.9-1.7,1.7-3.6,2.3-5.7
			c0.6-2,0.9-4,0.9-6c0-2-0.6-2.9-1.9-2.9c-3.4,0-8.1,5.4-14.3,16.3c-6.2,10.8-10.2,19.3-12.2,25.5
			C418.6,73.8,419.7,72.9,421.6,71.3z"/>
		<path fill="#EEEEEE" d="M554.1,123.6c0,7.8-4.8,15.9-14.4,24.1c-9.6,8.3-20.5,12.4-32.8,12.4c-7.4,0-13.1-1.7-17.1-5.1
			s-6-8.3-6-14.6c0-6.6,1.5-14.5,4.4-23.7c2.9-9.2,5.9-19.1,8.8-29.5c2.9-10.4,4.4-20.4,4.4-29.9c4.5-1.5,8.5-2.3,12-2.3
			c5.2,0,9.5,1.4,12.9,4.3c3.4,2.9,5.1,7.3,5.1,13.3c0,7.6-2.6,18-7.9,31.4c-5.2,13.4-7.9,21.4-7.9,24c0,2.9,1.5,4.4,4.4,4.4
			c4.5,0,8.9-2.3,13.3-7c4.4-4.7,8.1-10,11-16.1C550.8,109.9,554.1,114.7,554.1,123.6z M540.6,31.1c-3.4,3.6-8,5.5-13.9,5.5
			c-4.8,0-8.6-1.4-11.6-4.2c-3-2.8-4.5-6.4-4.5-10.9c0-6.2,1.9-10.9,5.6-14.4c3.7-3.4,8.1-5.1,13.3-5.1c4.9,0,8.8,1.5,11.8,4.4
			c2.9,2.9,4.4,6.8,4.4,11.5C545.7,23,544,27.5,540.6,31.1z"/>
	</g>
	<g>
		<path fill="#EEEEEE" d="M97.4,121.9c0,8.3-6.4,16.6-19.1,25.1c-12.7,8.5-26.6,12.7-41.8,12.7c-12.3,0-21.5-3.6-27.5-10.8
			c-6-7.2-9-16.7-9-28.4C0,110,2.3,99.6,7,89.3C11.7,79,18.5,70.5,27.4,63.6c8.9-6.9,18.6-10.3,29.1-10.3c18,0,27.1,7.7,27.1,23.1
			c0,6.9-2.1,12.5-6.4,16.9c-4.3,4.4-10,6.6-17.1,6.6c-2.2,0-4.3-0.3-6.2-1s-3.2-1.5-3.9-2.3l-1-1c4.5-4.8,6.7-9.4,6.7-13.8
			c0-3.2-1.4-4.8-4.2-4.8c-5.7,0-10.8,4.3-15.3,12.9s-6.7,18.5-6.7,29.7c0,4.9,1.2,8.6,3.7,11.2c2.4,2.6,5.6,3.9,9.3,3.9
			c10.4,0,19.8-2.8,28.3-8.5c8.5-5.7,14.5-11.3,17.8-16.9C94.4,110,97.4,114.3,97.4,121.9z"/>
		<path fill="#EEEEEE" d="M202.7,123.6c0,7.8-5,15.9-14.9,24.1c-9.9,8.3-21.1,12.4-33.6,12.4c-7.6,0-13.4-1.8-17.5-5.4
			s-6.2-8.7-6.2-15.4c0-5.9,3.1-15.6,9.2-29.1c6.2-13.5,9.2-21.4,9.2-23.6c0-2.2-0.9-3.4-2.7-3.4c-6,0-12.3,4.2-18.8,12.5
			c-6.5,8.3-11.8,18-15.7,29.2c-4,11.1-6.2,21.2-6.6,30.1c-2.4,1.4-5.4,2.1-9,2.1c-4.2,0-7.7-1.5-10.6-4.4
			c-2.9-2.9-4.3-7.4-4.3-13.4c0-5,0.7-11.7,2-19.9s3.3-17.5,5.8-27.7c2.5-10.2,5.9-20.4,10.1-30.6c4.2-10.2,8.8-19.6,13.8-28.2
			c5-8.6,11.1-15.6,18.2-20.9c7.1-5.3,14.5-8,22.3-8c7.6,0,13.4,1.9,17.6,5.7c4.2,3.8,6.3,9.1,6.3,15.9c0,12-3.8,22.5-11.3,31.5
			c9.4,2.5,14.1,9,14.1,19.3c0,5.9-1.4,12.3-4.3,19.4c-2.9,7.1-5.8,13.5-8.7,19.2c-2.9,5.7-4.4,9.9-4.4,12.6c0,3.2,1.7,4.8,5,4.8
			c4.6,0,9.3-2.3,14.2-7c4.8-4.7,8.6-10,11.4-16.1C199.5,109.9,202.7,114.7,202.7,123.6z M123.5,71.3c1.9-1.6,3.3-2.9,4.3-3.8
			c1-0.9,2.5-2.3,4.5-4.3c2-2,3.7-3.6,4.9-5c1.3-1.4,2.7-3.2,4.3-5.3c1.6-2.2,2.9-4.1,3.8-5.9c0.9-1.7,1.7-3.6,2.3-5.7
			c0.6-2,0.9-4,0.9-6c0-2-0.6-2.9-1.9-2.9c-3.4,0-8.1,5.4-14.3,16.3c-6.2,10.8-10.2,19.3-12.2,25.5
			C120.5,73.8,121.6,72.9,123.5,71.3z"/>
		<path fill="#EEEEEE" d="M313.9,123.6c0,8-4.8,16.1-14.3,24.2c-9.5,8.2-20.4,12.3-32.7,12.3c-3.5,0-6.6-0.4-9.4-1.3
			c-2.8-0.8-4.9-1.9-6.4-3c-1.5-1.2-2.7-2.4-3.6-3.7c-0.9-1.3-1.5-2.3-1.8-3.1l-0.4-1.3c-0.3,0.3-0.6,0.7-1,1.3
			c-0.4,0.6-1.5,1.5-3.1,2.9c-1.7,1.4-3.5,2.6-5.6,3.7c-2,1.1-4.8,2-8.3,2.8c-3.5,0.8-7.2,1.3-11.1,1.3c-10.1,0-17.6-3.2-22.7-9.7
			c-5-6.4-7.6-14.8-7.6-25.2c0-20,7.2-37.2,21.7-51.6c14.5-14.4,31.9-21.6,52.4-21.6c21.7,0,32.5,7.2,32.5,21.6c0,1-0.2,2.1-0.5,3.3
			c-0.4,1.2-0.7,2.1-0.9,2.8l-0.6,1.1c-6-4.1-16.4-6.1-31.3-6.1c-12,0-22.4,5-31.2,15c-8.7,10-13.1,21.9-13.1,35.6
			c0,7,2.7,10.5,8.2,10.5c3.6,0,7-1.2,10-3.5c3-2.3,5.6-5.6,7.8-10c2.2-4.3,4-8.5,5.4-12.5c1.4-4,2.9-8.8,4.4-14.4
			c2.9-10.4,9.4-15.5,19.5-15.5c2.2,0,4.3,0.2,6.2,0.5c1.9,0.3,3.2,0.7,3.9,0.9l1.3,0.4c-1.4,4.5-2.9,9.3-4.4,14.4
			c-1.5,5.1-2.7,8.7-3.4,10.9c-0.7,2.2-1.4,4.4-2,6.8c-0.6,2.4-1,4.2-1.3,5.5c-0.2,1.3-0.3,2.5-0.3,3.8c0,6.4,3.1,9.7,9.2,9.7
			c4.8,0,9.6-2.4,14.5-7.2c4.9-4.8,8.5-10.1,10.7-15.8C310.7,109.9,313.9,114.7,313.9,123.6z"/>
		<path fill="#EEEEEE" d="M394.4,121.9c0,8.3-6.4,16.6-19.1,25.1c-12.7,8.5-26.6,12.7-41.8,12.7c-12.3,0-21.5-3.6-27.5-10.8
			c-6-7.2-9-16.7-9-28.4c0-10.5,2.3-20.9,7-31.2c4.7-10.3,11.5-18.8,20.4-25.7c8.9-6.9,18.6-10.3,29.1-10.3c18,0,27.1,7.7,27.1,23.1
			c0,6.9-2.1,12.5-6.4,16.9c-4.3,4.4-10,6.6-17.1,6.6c-2.2,0-4.3-0.3-6.2-1c-1.9-0.7-3.2-1.5-3.9-2.3l-1-1c4.5-4.8,6.7-9.4,6.7-13.8
			c0-3.2-1.4-4.8-4.2-4.8c-5.7,0-10.8,4.3-15.3,12.9c-4.5,8.6-6.7,18.5-6.7,29.7c0,4.9,1.2,8.6,3.7,11.2c2.4,2.6,5.6,3.9,9.3,3.9
			c10.4,0,19.8-2.8,28.3-8.5c8.5-5.7,14.5-11.3,17.8-16.9C391.5,110,394.4,114.3,394.4,121.9z"/>
		<path fill="#EEEEEE" d="M499.8,123.6c0,7.8-5,15.9-14.9,24.1c-9.9,8.3-21.1,12.4-33.6,12.4c-7.6,0-13.4-1.8-17.5-5.4
			s-6.2-8.7-6.2-15.4c0-5.9,3.1-15.6,9.2-29.1c6.2-13.5,9.2-21.4,9.2-23.6c0-2.2-0.9-3.4-2.7-3.4c-6,0-12.3,4.2-18.8,12.5
			c-6.5,8.3-11.8,18-15.7,29.2c-4,11.1-6.2,21.2-6.6,30.1c-2.4,1.4-5.4,2.1-9,2.1c-4.2,0-7.7-1.5-10.6-4.4
			c-2.9-2.9-4.3-7.4-4.3-13.4c0-5,0.7-11.7,2-19.9c1.3-8.3,3.3-17.5,5.8-27.7s5.9-20.4,10.1-30.6c4.2-10.2,8.8-19.6,13.8-28.2
			c5-8.6,11.1-15.6,18.1-20.9c7.1-5.3,14.5-8,22.3-8c7.6,0,13.4,1.9,17.6,5.7c4.2,3.8,6.3,9.1,6.3,15.9c0,12-3.8,22.5-11.3,31.5
			c9.4,2.5,14.1,9,14.1,19.3c0,5.9-1.4,12.3-4.3,19.4c-2.9,7.1-5.8,13.5-8.7,19.2c-2.9,5.7-4.4,9.9-4.4,12.6c0,3.2,1.7,4.8,5,4.8
			c4.6,0,9.3-2.3,14.2-7c4.8-4.7,8.6-10,11.4-16.1C496.6,109.9,499.8,114.7,499.8,123.6z M420.6,71.3c1.9-1.6,3.3-2.9,4.3-3.8
			c1-0.9,2.5-2.3,4.5-4.3c2-2,3.7-3.6,4.9-5c1.3-1.4,2.7-3.2,4.3-5.3c1.6-2.2,2.9-4.1,3.8-5.9c0.9-1.7,1.7-3.6,2.3-5.7
			c0.6-2,0.9-4,0.9-6c0-2-0.6-2.9-1.9-2.9c-3.4,0-8.1,5.4-14.3,16.3c-6.2,10.8-10.2,19.3-12.2,25.5
			C417.6,73.8,418.7,72.9,420.6,71.3z"/>
		<path fill="#EEEEEE" d="M553.1,123.6c0,7.8-4.8,15.9-14.4,24.1c-9.6,8.3-20.5,12.4-32.8,12.4c-7.4,0-13.1-1.7-17.1-5.1
			s-6-8.3-6-14.6c0-6.6,1.5-14.5,4.4-23.7c2.9-9.2,5.9-19.1,8.8-29.5c2.9-10.4,4.4-20.4,4.4-29.9c4.5-1.5,8.5-2.3,12-2.3
			c5.2,0,9.5,1.4,12.9,4.3c3.4,2.9,5.1,7.3,5.1,13.3c0,7.6-2.6,18-7.9,31.4c-5.2,13.4-7.9,21.4-7.9,24c0,2.9,1.5,4.4,4.4,4.4
			c4.5,0,8.9-2.3,13.3-7c4.4-4.7,8.1-10,11-16.1C549.8,109.9,553.1,114.7,553.1,123.6z M539.6,31.1c-3.4,3.6-8,5.5-13.9,5.5
			c-4.8,0-8.6-1.4-11.6-4.2c-3-2.8-4.5-6.4-4.5-10.9c0-6.2,1.9-10.9,5.6-14.4c3.7-3.4,8.1-5.1,13.3-5.1c4.9,0,8.8,1.5,11.8,4.4
			c2.9,2.9,4.4,6.8,4.4,11.5C544.7,23,543,27.5,539.6,31.1z"/>
	</g>
	<g>
		<path fill="#EEEEEE" d="M97.4,120.9c0,8.3-6.4,16.6-19.1,25.1c-12.7,8.5-26.6,12.7-41.8,12.7c-12.3,0-21.5-3.6-27.5-10.8
			c-6-7.2-9-16.7-9-28.4C0,109,2.3,98.6,7,88.3C11.7,78,18.5,69.5,27.4,62.6c8.9-6.9,18.6-10.3,29.1-10.3c18,0,27.1,7.7,27.1,23.1
			c0,6.9-2.1,12.5-6.4,16.9c-4.3,4.4-10,6.6-17.1,6.6c-2.2,0-4.3-0.3-6.2-1s-3.2-1.5-3.9-2.3l-1-1c4.5-4.8,6.7-9.4,6.7-13.8
			c0-3.2-1.4-4.8-4.2-4.8c-5.7,0-10.8,4.3-15.3,12.9s-6.7,18.5-6.7,29.7c0,4.9,1.2,8.6,3.7,11.2c2.4,2.6,5.6,3.9,9.3,3.9
			c10.4,0,19.8-2.8,28.3-8.5c8.5-5.7,14.5-11.3,17.8-16.9C94.4,109,97.4,113.3,97.4,120.9z"/>
		<path fill="#EEEEEE" d="M202.7,122.6c0,7.8-5,15.9-14.9,24.1c-9.9,8.3-21.1,12.4-33.6,12.4c-7.6,0-13.4-1.8-17.5-5.4
			s-6.2-8.7-6.2-15.4c0-5.9,3.1-15.6,9.2-29.1c6.2-13.5,9.2-21.4,9.2-23.6c0-2.2-0.9-3.4-2.7-3.4c-6,0-12.3,4.2-18.8,12.5
			c-6.5,8.3-11.8,18-15.7,29.2c-4,11.1-6.2,21.2-6.6,30.1c-2.4,1.4-5.4,2.1-9,2.1c-4.2,0-7.7-1.5-10.6-4.4
			c-2.9-2.9-4.3-7.4-4.3-13.4c0-5,0.7-11.7,2-19.9s3.3-17.5,5.8-27.7c2.5-10.2,5.9-20.4,10.1-30.6c4.2-10.2,8.8-19.6,13.8-28.2
			c5-8.6,11.1-15.6,18.2-20.9c7.1-5.3,14.5-8,22.3-8c7.6,0,13.4,1.9,17.6,5.7c4.2,3.8,6.3,9.1,6.3,15.9c0,12-3.8,22.5-11.3,31.5
			c9.4,2.5,14.1,9,14.1,19.3c0,5.9-1.4,12.3-4.3,19.4c-2.9,7.1-5.8,13.5-8.7,19.2c-2.9,5.7-4.4,9.9-4.4,12.6c0,3.2,1.7,4.8,5,4.8
			c4.6,0,9.3-2.3,14.2-7c4.8-4.7,8.6-10,11.4-16.1C199.5,108.9,202.7,113.7,202.7,122.6z M123.5,70.3c1.9-1.6,3.3-2.9,4.3-3.8
			c1-0.9,2.5-2.3,4.5-4.3c2-2,3.7-3.6,4.9-5c1.3-1.4,2.7-3.2,4.3-5.3c1.6-2.2,2.9-4.1,3.8-5.9c0.9-1.7,1.7-3.6,2.3-5.7
			c0.6-2,0.9-4,0.9-6c0-2-0.6-2.9-1.9-2.9c-3.4,0-8.1,5.4-14.3,16.3c-6.2,10.8-10.2,19.3-12.2,25.5
			C120.5,72.8,121.6,71.9,123.5,70.3z"/>
		<path fill="#EEEEEE" d="M313.9,122.6c0,8-4.8,16.1-14.3,24.2c-9.5,8.2-20.4,12.3-32.7,12.3c-3.5,0-6.6-0.4-9.4-1.3
			c-2.8-0.8-4.9-1.9-6.4-3c-1.5-1.2-2.7-2.4-3.6-3.7c-0.9-1.3-1.5-2.3-1.8-3.1l-0.4-1.3c-0.3,0.3-0.6,0.7-1,1.3
			c-0.4,0.6-1.5,1.5-3.1,2.9c-1.7,1.4-3.5,2.6-5.6,3.7c-2,1.1-4.8,2-8.3,2.8c-3.5,0.8-7.2,1.3-11.1,1.3c-10.1,0-17.6-3.2-22.7-9.7
			c-5-6.4-7.6-14.8-7.6-25.2c0-20,7.2-37.2,21.7-51.6c14.5-14.4,31.9-21.6,52.4-21.6c21.7,0,32.5,7.2,32.5,21.6c0,1-0.2,2.1-0.5,3.3
			c-0.4,1.2-0.7,2.1-0.9,2.8l-0.6,1.1c-6-4.1-16.4-6.1-31.3-6.1c-12,0-22.4,5-31.2,15c-8.7,10-13.1,21.9-13.1,35.6
			c0,7,2.7,10.5,8.2,10.5c3.6,0,7-1.2,10-3.5c3-2.3,5.6-5.6,7.8-10c2.2-4.3,4-8.5,5.4-12.5c1.4-4,2.9-8.8,4.4-14.4
			c2.9-10.4,9.4-15.5,19.5-15.5c2.2,0,4.3,0.2,6.2,0.5c1.9,0.3,3.2,0.7,3.9,0.9l1.3,0.4c-1.4,4.5-2.9,9.3-4.4,14.4
			c-1.5,5.1-2.7,8.7-3.4,10.9c-0.7,2.2-1.4,4.4-2,6.8c-0.6,2.4-1,4.2-1.3,5.5c-0.2,1.3-0.3,2.5-0.3,3.8c0,6.4,3.1,9.7,9.2,9.7
			c4.8,0,9.6-2.4,14.5-7.2c4.9-4.8,8.5-10.1,10.7-15.8C310.7,108.9,313.9,113.7,313.9,122.6z"/>
		<path fill="#EEEEEE" d="M394.4,120.9c0,8.3-6.4,16.6-19.1,25.1c-12.7,8.5-26.6,12.7-41.8,12.7c-12.3,0-21.5-3.6-27.5-10.8
			c-6-7.2-9-16.7-9-28.4c0-10.5,2.3-20.9,7-31.2c4.7-10.3,11.5-18.8,20.4-25.7c8.9-6.9,18.6-10.3,29.1-10.3c18,0,27.1,7.7,27.1,23.1
			c0,6.9-2.1,12.5-6.4,16.9c-4.3,4.4-10,6.6-17.1,6.6c-2.2,0-4.3-0.3-6.2-1c-1.9-0.7-3.2-1.5-3.9-2.3l-1-1c4.5-4.8,6.7-9.4,6.7-13.8
			c0-3.2-1.4-4.8-4.2-4.8c-5.7,0-10.8,4.3-15.3,12.9c-4.5,8.6-6.7,18.5-6.7,29.7c0,4.9,1.2,8.6,3.7,11.2c2.4,2.6,5.6,3.9,9.3,3.9
			c10.4,0,19.8-2.8,28.3-8.5c8.5-5.7,14.5-11.3,17.8-16.9C391.5,109,394.4,113.3,394.4,120.9z"/>
		<path fill="#EEEEEE" d="M499.8,122.6c0,7.8-5,15.9-14.9,24.1c-9.9,8.3-21.1,12.4-33.6,12.4c-7.6,0-13.4-1.8-17.5-5.4
			s-6.2-8.7-6.2-15.4c0-5.9,3.1-15.6,9.2-29.1c6.2-13.5,9.2-21.4,9.2-23.6c0-2.2-0.9-3.4-2.7-3.4c-6,0-12.3,4.2-18.8,12.5
			c-6.5,8.3-11.8,18-15.7,29.2c-4,11.1-6.2,21.2-6.6,30.1c-2.4,1.4-5.4,2.1-9,2.1c-4.2,0-7.7-1.5-10.6-4.4
			c-2.9-2.9-4.3-7.4-4.3-13.4c0-5,0.7-11.7,2-19.9c1.3-8.3,3.3-17.5,5.8-27.7s5.9-20.4,10.1-30.6c4.2-10.2,8.8-19.6,13.8-28.2
			c5-8.6,11.1-15.6,18.1-20.9c7.1-5.3,14.5-8,22.3-8c7.6,0,13.4,1.9,17.6,5.7c4.2,3.8,6.3,9.1,6.3,15.9c0,12-3.8,22.5-11.3,31.5
			c9.4,2.5,14.1,9,14.1,19.3c0,5.9-1.4,12.3-4.3,19.4c-2.9,7.1-5.8,13.5-8.7,19.2c-2.9,5.7-4.4,9.9-4.4,12.6c0,3.2,1.7,4.8,5,4.8
			c4.6,0,9.3-2.3,14.2-7c4.8-4.7,8.6-10,11.4-16.1C496.6,108.9,499.8,113.7,499.8,122.6z M420.6,70.3c1.9-1.6,3.3-2.9,4.3-3.8
			c1-0.9,2.5-2.3,4.5-4.3c2-2,3.7-3.6,4.9-5c1.3-1.4,2.7-3.2,4.3-5.3c1.6-2.2,2.9-4.1,3.8-5.9c0.9-1.7,1.7-3.6,2.3-5.7
			c0.6-2,0.9-4,0.9-6c0-2-0.6-2.9-1.9-2.9c-3.4,0-8.1,5.4-14.3,16.3c-6.2,10.8-10.2,19.3-12.2,25.5
			C417.6,72.8,418.7,71.9,420.6,70.3z"/>
		<path fill="#EEEEEE" d="M553.1,122.6c0,7.8-4.8,15.9-14.4,24.1c-9.6,8.3-20.5,12.4-32.8,12.4c-7.4,0-13.1-1.7-17.1-5.1
			s-6-8.3-6-14.6c0-6.6,1.5-14.5,4.4-23.7c2.9-9.2,5.9-19.1,8.8-29.5c2.9-10.4,4.4-20.4,4.4-29.9c4.5-1.5,8.5-2.3,12-2.3
			c5.2,0,9.5,1.4,12.9,4.3c3.4,2.9,5.1,7.3,5.1,13.3c0,7.6-2.6,18-7.9,31.4c-5.2,13.4-7.9,21.4-7.9,24c0,2.9,1.5,4.4,4.4,4.4
			c4.5,0,8.9-2.3,13.3-7c4.4-4.7,8.1-10,11-16.1C549.8,108.9,553.1,113.7,553.1,122.6z M539.6,30.1c-3.4,3.6-8,5.5-13.9,5.5
			c-4.8,0-8.6-1.4-11.6-4.2c-3-2.8-4.5-6.4-4.5-10.9c0-6.2,1.9-10.9,5.6-14.4c3.7-3.4,8.1-5.1,13.3-5.1c4.9,0,8.8,1.5,11.8,4.4
			c2.9,2.9,4.4,6.8,4.4,11.5C544.7,22,543,26.5,539.6,30.1z"/>
	</g>
</g>
<g>
	<path fill="#FFFFFF" d="M97.4,120c0,8.3-6.4,16.6-19.1,25.1c-12.7,8.5-26.6,12.7-41.8,12.7C24.2,157.8,15,154.2,9,147
		c-6-7.2-9-16.7-9-28.4c0-10.5,2.3-20.9,7-31.2c4.7-10.3,11.5-18.8,20.4-25.7c8.9-6.9,18.6-10.3,29.1-10.3c18,0,27.1,7.7,27.1,23.1
		c0,6.9-2.1,12.5-6.4,16.9C72.8,95.8,67.1,98,60,98c-2.2,0-4.3-0.3-6.2-1s-3.2-1.5-3.9-2.3l-1-1c4.5-4.8,6.7-9.4,6.7-13.8
		c0-3.2-1.4-4.8-4.2-4.8c-5.7,0-10.8,4.3-15.3,12.9s-6.7,18.5-6.7,29.7c0,4.9,1.2,8.6,3.7,11.2c2.4,2.6,5.6,3.9,9.3,3.9
		c10.4,0,19.8-2.8,28.3-8.5c8.5-5.7,14.5-11.3,17.8-16.9C94.4,108.1,97.4,112.3,97.4,120z"/>
	<path fill="#FFFFFF" d="M202.7,121.7c0,7.8-5,15.9-14.9,24.1c-9.9,8.3-21.1,12.4-33.6,12.4c-7.6,0-13.4-1.8-17.5-5.4
		c-4.1-3.6-6.2-8.7-6.2-15.4c0-5.9,3.1-15.6,9.2-29.1c6.2-13.5,9.2-21.4,9.2-23.6s-0.9-3.4-2.7-3.4c-6,0-12.3,4.2-18.8,12.5
		c-6.5,8.3-11.8,18-15.7,29.2c-4,11.1-6.2,21.2-6.6,30.1c-2.4,1.4-5.4,2.1-9,2.1c-4.2,0-7.7-1.5-10.6-4.4c-2.9-2.9-4.3-7.4-4.3-13.4
		c0-5,0.7-11.7,2-19.9S86.4,100,89,89.8c2.5-10.2,5.9-20.4,10.1-30.6c4.2-10.2,8.8-19.6,13.8-28.2c5-8.6,11.1-15.6,18.2-20.9
		c7.1-5.3,14.5-8,22.3-8c7.6,0,13.4,1.9,17.6,5.7c4.2,3.8,6.3,9.1,6.3,15.9c0,12-3.8,22.5-11.3,31.5c9.4,2.5,14.1,9,14.1,19.3
		c0,5.9-1.4,12.3-4.3,19.4c-2.9,7.1-5.8,13.5-8.7,19.2c-2.9,5.7-4.4,9.9-4.4,12.6c0,3.2,1.7,4.8,5,4.8c4.6,0,9.3-2.3,14.2-7
		c4.8-4.7,8.6-10,11.4-16.1C199.5,108,202.7,112.7,202.7,121.7z M123.5,69.3c1.9-1.6,3.3-2.9,4.3-3.8c1-0.9,2.5-2.3,4.5-4.3
		c2-2,3.7-3.6,4.9-5c1.3-1.4,2.7-3.2,4.3-5.3c1.6-2.2,2.9-4.1,3.8-5.9c0.9-1.7,1.7-3.6,2.3-5.7c0.6-2,0.9-4,0.9-6
		c0-2-0.6-2.9-1.9-2.9c-3.4,0-8.1,5.4-14.3,16.3c-6.2,10.8-10.2,19.3-12.2,25.5C120.5,71.9,121.6,71,123.5,69.3z"/>
	<path fill="#FFFFFF" d="M313.9,121.7c0,8-4.8,16.1-14.3,24.2c-9.5,8.2-20.4,12.3-32.7,12.3c-3.5,0-6.6-0.4-9.4-1.3
		c-2.8-0.8-4.9-1.9-6.4-3c-1.5-1.2-2.7-2.4-3.6-3.7c-0.9-1.3-1.5-2.3-1.8-3.1l-0.4-1.3c-0.3,0.3-0.6,0.7-1,1.3
		c-0.4,0.6-1.5,1.5-3.1,2.9c-1.7,1.4-3.5,2.6-5.6,3.7c-2,1.1-4.8,2-8.3,2.8c-3.5,0.8-7.2,1.3-11.1,1.3c-10.1,0-17.6-3.2-22.7-9.7
		c-5-6.4-7.6-14.8-7.6-25.2c0-20,7.2-37.2,21.7-51.6c14.5-14.4,31.9-21.6,52.4-21.6c21.7,0,32.5,7.2,32.5,21.6c0,1-0.2,2.1-0.5,3.3
		c-0.4,1.2-0.7,2.1-0.9,2.8l-0.6,1.1c-6-4.1-16.4-6.1-31.3-6.1c-12,0-22.4,5-31.2,15c-8.7,10-13.1,21.9-13.1,35.6
		c0,7,2.7,10.5,8.2,10.5c3.6,0,7-1.2,10-3.5c3-2.3,5.6-5.6,7.8-10c2.2-4.3,4-8.5,5.4-12.5s2.9-8.8,4.4-14.4
		c2.9-10.4,9.4-15.5,19.5-15.5c2.2,0,4.3,0.2,6.2,0.5c1.9,0.3,3.2,0.7,3.9,0.9l1.3,0.4c-1.4,4.5-2.9,9.3-4.4,14.4
		c-1.5,5.1-2.7,8.7-3.4,10.9c-0.7,2.2-1.4,4.4-2,6.8c-0.6,2.4-1,4.2-1.3,5.5c-0.2,1.3-0.3,2.5-0.3,3.8c0,6.4,3.1,9.7,9.2,9.7
		c4.8,0,9.6-2.4,14.5-7.2c4.9-4.8,8.5-10.1,10.7-15.8C310.7,108,313.9,112.7,313.9,121.7z"/>
	<path fill="#FFFFFF" d="M394.4,120c0,8.3-6.4,16.6-19.1,25.1c-12.7,8.5-26.6,12.7-41.8,12.7c-12.3,0-21.5-3.6-27.5-10.8
		c-6-7.2-9-16.7-9-28.4c0-10.5,2.3-20.9,7-31.2c4.7-10.3,11.5-18.8,20.4-25.7c8.9-6.9,18.6-10.3,29.1-10.3c18,0,27.1,7.7,27.1,23.1
		c0,6.9-2.1,12.5-6.4,16.9c-4.3,4.4-10,6.6-17.1,6.6c-2.2,0-4.3-0.3-6.2-1c-1.9-0.7-3.2-1.5-3.9-2.3l-1-1c4.5-4.8,6.7-9.4,6.7-13.8
		c0-3.2-1.4-4.8-4.2-4.8c-5.7,0-10.8,4.3-15.3,12.9c-4.5,8.6-6.7,18.5-6.7,29.7c0,4.9,1.2,8.6,3.7,11.2c2.4,2.6,5.6,3.9,9.3,3.9
		c10.4,0,19.8-2.8,28.3-8.5c8.5-5.7,14.5-11.3,17.8-16.9C391.5,108.1,394.4,112.3,394.4,120z"/>
	<path fill="#FFFFFF" d="M499.8,121.7c0,7.8-5,15.9-14.9,24.1c-9.9,8.3-21.1,12.4-33.6,12.4c-7.6,0-13.4-1.8-17.5-5.4
		c-4.1-3.6-6.2-8.7-6.2-15.4c0-5.9,3.1-15.6,9.2-29.1c6.2-13.5,9.2-21.4,9.2-23.6s-0.9-3.4-2.7-3.4c-6,0-12.3,4.2-18.8,12.5
		c-6.5,8.3-11.8,18-15.7,29.2c-4,11.1-6.2,21.2-6.6,30.1c-2.4,1.4-5.4,2.1-9,2.1c-4.2,0-7.7-1.5-10.6-4.4c-2.9-2.9-4.3-7.4-4.3-13.4
		c0-5,0.7-11.7,2-19.9c1.3-8.3,3.3-17.5,5.8-27.7s5.9-20.4,10.1-30.6C400.3,49,404.9,39.6,410,31c5-8.6,11.1-15.6,18.1-20.9
		c7.1-5.3,14.5-8,22.3-8c7.6,0,13.4,1.9,17.6,5.7c4.2,3.8,6.3,9.1,6.3,15.9c0,12-3.8,22.5-11.3,31.5c9.4,2.5,14.1,9,14.1,19.3
		c0,5.9-1.4,12.3-4.3,19.4c-2.9,7.1-5.8,13.5-8.7,19.2c-2.9,5.7-4.4,9.9-4.4,12.6c0,3.2,1.7,4.8,5,4.8c4.6,0,9.3-2.3,14.2-7
		c4.8-4.7,8.6-10,11.4-16.1C496.6,108,499.8,112.7,499.8,121.7z M420.6,69.3c1.9-1.6,3.3-2.9,4.3-3.8c1-0.9,2.5-2.3,4.5-4.3
		c2-2,3.7-3.6,4.9-5c1.3-1.4,2.7-3.2,4.3-5.3c1.6-2.2,2.9-4.1,3.8-5.9c0.9-1.7,1.7-3.6,2.3-5.7c0.6-2,0.9-4,0.9-6
		c0-2-0.6-2.9-1.9-2.9c-3.4,0-8.1,5.4-14.3,16.3c-6.2,10.8-10.2,19.3-12.2,25.5C417.6,71.9,418.7,71,420.6,69.3z"/>
	<path fill="#FFFFFF" d="M553.1,121.7c0,7.8-4.8,15.9-14.4,24.1c-9.6,8.3-20.5,12.4-32.8,12.4c-7.4,0-13.1-1.7-17.1-5.1
		s-6-8.3-6-14.6c0-6.6,1.5-14.5,4.4-23.7c2.9-9.2,5.9-19.1,8.8-29.5c2.9-10.4,4.4-20.4,4.4-29.9c4.5-1.5,8.5-2.3,12-2.3
		c5.2,0,9.5,1.4,12.9,4.3c3.4,2.9,5.1,7.3,5.1,13.3c0,7.6-2.6,18-7.9,31.4c-5.2,13.4-7.9,21.4-7.9,24c0,2.9,1.5,4.4,4.4,4.4
		c4.5,0,8.9-2.3,13.3-7c4.4-4.7,8.1-10,11-16.1C549.8,108,553.1,112.7,553.1,121.7z M539.6,29.2c-3.4,3.6-8,5.5-13.9,5.5
		c-4.8,0-8.6-1.4-11.6-4.2c-3-2.8-4.5-6.4-4.5-10.9c0-6.2,1.9-10.9,5.6-14.4c3.7-3.4,8.1-5.1,13.3-5.1c4.9,0,8.8,1.5,11.8,4.4
		c2.9,2.9,4.4,6.8,4.4,11.5C544.7,21.1,543,25.5,539.6,29.2z"/>
</g>
</svg>
